ply
format ascii 1.0
element vertex 1067
property float x
property float y
property float z
property uchar red
property uchar green
property uchar blue
end_header
-0.16 0.128 -0.064 74 77 82
-0.128 0.072 -0.024 156 154 132
-0.128 0.08 -0.024 173 162 148
-0.128 0.064 -0.016 107 101 90
-0.12 0.064 -0.016 115 113 74
-0.12 0.072 -0.016 156 154 99
-0.128 0.064 -0.008 247 243 247
-0.12 0.064 -0.008 239 231 239
-0.12 0.064 0 255 255 255
-0.12 0.064 0.008 255 255 255
-0.216 -0.08 0 165 150 173
-0.208 -0.08 0 156 154 165
-0.2 -0.08 0 189 182 181
-0.208 -0.072 0 115 125 123
-0.2 -0.072 0 181 158 189
-0.208 -0.072 0.008 123 150 132
-0.2 -0.072 0.008 181 142 189
-0.208 -0.072 0.016 123 150 140
-0.2 -0.072 0.016 140 101 140
-0.064 -0.072 -0.112 132 154 123
-0.064 -0.072 -0.104 189 186 173
-0.192 -0.088 -0.016 230 223 255
-0.192 -0.08 -0.008 222 198 214
-0.072 -0.072 -0.12 148 154 148
-0.088 -0.088 -0.112 58 61 58
-0.08 -0.088 -0.112 58 69 66
-0.088 -0.08 -0.112 58 57 58
-0.08 -0.08 -0.112 41 49 49
-0.072 -0.08 -0.112 148 150 140
-0.104 -0.072 -0.112 58 57 58
-0.096 -0.072 -0.112 58 61 58
-0.088 -0.072 -0.112 49 53 49
-0.08 -0.072 -0.112 58 53 49
-0.072 -0.072 -0.112 148 134 140
-0.128 -0.088 -0.104 49 49 49
-0.12 -0.088 -0.104 49 49 49
-0.112 -0.088 -0.104 58 65 66
-0.104 -0.088 -0.104 58 57 58
-0.096 -0.088 -0.104 66 69 74
-0.088 -0.088 -0.104 66 73 74
-0.08 -0.088 -0.104 58 69 66
-0.128 -0.08 -0.104 49 53 49
-0.12 -0.08 -0.104 66 61 58
-0.112 -0.08 -0.104 58 53 58
-0.104 -0.08 -0.104 49 53 49
-0.096 -0.08 -0.104 58 53 49
-0.088 -0.08 -0.104 49 57 49
-0.08 -0.08 -0.104 49 53 49
-0.072 -0.08 -0.104 41 49 49
-0.128 -0.072 -0.104 49 53 49
-0.12 -0.072 -0.104 58 61 66
-0.112 -0.072 -0.104 49 57 49
-0.104 -0.072 -0.104 58 57 58
-0.096 -0.072 -0.104 58 57 58
-0.088 -0.072 -0.104 58 61 58
-0.08 -0.072 -0.104 58 57 58
-0.072 -0.072 -0.104 74 101 74
-0.128 -0.088 -0.096 49 49 49
-0.12 -0.088 -0.096 41 45 41
-0.112 -0.088 -0.096 49 65 58
-0.104 -0.088 -0.096 66 69 66
-0.128 -0.088 -0.088 49 49 49
-0.12 -0.088 -0.088 49 49 49
-0.208 -0.104 -0.064 0 85 107
-0.2 -0.104 -0.064 58 65 74
-0.224 -0.096 -0.064 58 134 156
-0.216 -0.096 -0.064 41 113 140
-0.224 -0.088 -0.064 214 202 214
-0.216 -0.088 -0.064 115 166 173
-0.232 -0.08 -0.064 156 150 156
-0.224 -0.08 -0.064 222 215 222
-0.224 -0.072 -0.064 214 210 214
-0.216 -0.072 -0.064 222 219 214
-0.208 -0.104 -0.056 0 73 107
-0.232 -0.096 -0.056 66 121 140
-0.224 -0.096 -0.056 66 121 148
-0.224 -0.088 -0.056 140 121 148
-0.224 -0.08 -0.056 140 146 140
-0.216 -0.08 -0.056 156 146 148
-0.216 -0.072 -0.056 140 142 140
-0.232 -0.096 -0.048 66 105 115
-0.224 -0.096 -0.048 90 125 140
-0.216 -0.096 -0.048 90 142 165
-0.208 -0.096 -0.048 66 109 132
-0.2 -0.096 -0.048 33 81 99
-0.224 -0.088 -0.048 74 117 132
-0.224 -0.08 -0.048 107 113 107
-0.216 -0.072 -0.048 123 113 123
-0.224 -0.096 -0.04 25 85 58
-0.216 -0.096 -0.04 25 57 74
-0.208 -0.096 -0.04 16 77 99
-0.2 -0.096 -0.04 41 101 123
-0.224 -0.088 -0.04 8 53 74
-0.224 -0.08 -0.04 82 85 82
-0.216 -0.08 -0.04 90 93 90
-0.224 -0.072 -0.04 74 81 74
-0.216 -0.072 -0.04 99 97 99
-0.208 -0.096 -0.032 140 154 148
-0.224 -0.088 -0.032 132 117 99
-0.224 -0.08 -0.032 165 125 148
-0.216 -0.08 -0.032 107 105 82
-0.216 -0.072 -0.032 66 65 66
-0.224 -0.088 -0.024 165 170 165
-0.216 -0.088 -0.024 156 162 156
-0.208 -0.088 -0.024 156 158 156
-0.2 -0.088 -0.024 165 178 173
-0.216 -0.08 -0.024 58 69 74
-0.208 -0.072 -0.024 90 113 115
-0.216 -0.088 -0.016 239 190 239
-0.2 -0.088 -0.016 173 166 189
-0.216 -0.08 -0.016 239 219 239
-0.208 -0.08 -0.016 230 223 247
-0.208 -0.072 -0.016 189 138 230
-0.2 -0.072 -0.016 197 130 197
-0.216 -0.08 -0.008 140 142 148
-0.208 -0.08 -0.008 181 178 206
-0.208 -0.072 -0.008 173 121 173
-0.2 -0.072 -0.008 206 150 197
-0.2 -0.088 -0.088 41 49 49
-0.208 -0.08 -0.088 33 36 41
-0.2 -0.08 -0.088 41 45 41
-0.208 -0.072 -0.088 16 16 8
-0.2 -0.072 -0.088 0 8 0
-0.208 -0.096 -0.08 49 53 49
-0.2 -0.096 -0.08 49 53 49
-0.216 -0.088 -0.08 41 49 49
-0.208 -0.088 -0.08 49 49 49
-0.2 -0.088 -0.08 49 49 49
-0.224 -0.08 -0.08 41 45 41
-0.216 -0.08 -0.08 41 45 41
-0.208 -0.08 -0.08 41 45 41
-0.216 -0.072 -0.08 58 53 66
-0.208 -0.072 -0.08 33 36 41
-0.2 -0.104 -0.072 49 53 58
-0.224 -0.096 -0.072 132 142 140
-0.216 -0.096 -0.072 132 130 140
-0.208 -0.096 -0.072 107 101 107
-0.224 -0.088 -0.072 156 150 165
-0.216 -0.088 -0.072 148 158 148
-0.232 -0.08 -0.072 206 194 206
-0.224 -0.08 -0.072 165 138 165
-0.224 -0.072 -0.072 156 150 156
-0.216 -0.072 -0.072 140 142 140
-0.144 0 0 8 49 173
-0.144 0.008 0 8 40 148
-0.136 0.008 0 8 49 197
-0.144 0.016 0 0 73 181
-0.136 0.016 0 25 53 140
-0.144 0.024 0 8 69 214
-0.136 0.024 0 8 101 239
-0.144 0.032 0 25 69 148
-0.136 0.032 0 25 109 206
-0.136 0.04 0 58 130 247
-0.136 0.048 0 165 130 148
-0.152 0 0.008 0 101 255
-0.144 0 0.008 8 105 214
-0.144 0.008 0.008 8 65 189
-0.136 0.008 0.008 0 65 206
-0.144 0.016 0.008 8 57 189
-0.136 0.016 0.008 33 49 181
-0.144 0.024 0.008 16 69 197
-0.136 0.024 0.008 25 65 173
-0.144 0.032 0.008 41 73 181
-0.136 0.032 0.008 123 154 173
-0.136 0.04 0.008 123 162 156
-0.176 0 0.016 8 73 247
-0.168 0 0.016 8 73 255
-0.176 0.008 0.016 0 97 255
-0.168 0.008 0.016 0 97 255
-0.176 0.016 0.016 0 89 247
-0.168 0.016 0.016 0 77 247
-0.176 0.024 0.016 8 65 189
-0.168 0.024 0.016 16 45 173
-0.2 -0.064 -0.088 0 4 0
-0.2 -0.056 -0.088 8 12 8
-0.216 -0.064 -0.08 82 77 99
-0.208 -0.064 -0.08 49 57 66
-0.2 -0.064 -0.08 16 20 25
-0.208 -0.056 -0.08 58 57 66
-0.2 -0.056 -0.08 33 36 49
-0.2 -0.048 -0.08 74 61 82
-0.2 -0.04 -0.08 107 81 107
-0.216 -0.064 -0.072 107 97 115
-0.216 -0.056 -0.072 82 89 90
-0.208 -0.056 -0.072 82 89 90
-0.208 -0.048 -0.072 66 85 82
-0.2 -0.048 -0.072 99 113 107
-0.2 -0.04 -0.072 156 117 156
-0.2 -0.032 -0.072 74 81 90
-0.2 -0.064 0 197 235 222
-0.2 -0.056 0 214 227 247
-0.208 -0.064 0.008 222 198 214
-0.2 -0.064 0.008 222 186 214
-0.208 -0.056 0.008 214 198 214
-0.2 -0.056 0.008 214 215 239
-0.208 -0.064 0.016 214 215 239
-0.2 -0.064 0.016 230 194 206
-0.2 -0.056 0.016 214 202 230
-0.224 -0.064 -0.064 206 186 206
-0.216 -0.064 -0.064 99 138 107
-0.216 -0.056 -0.064 49 57 66
-0.208 -0.056 -0.064 58 69 74
-0.208 -0.048 -0.064 74 77 107
-0.2 -0.048 -0.064 58 61 99
-0.208 -0.04 -0.064 41 73 58
-0.2 -0.04 -0.064 99 113 115
-0.2 -0.032 -0.064 107 113 148
-0.216 -0.064 -0.056 148 150 148
-0.216 -0.056 -0.056 33 57 41
-0.208 -0.056 -0.056 33 61 41
-0.208 -0.048 -0.056 41 49 49
-0.2 -0.048 -0.056 58 65 66
-0.2 -0.04 -0.056 49 61 74
-0.2 -0.032 -0.056 41 53 66
-0.2 -0.024 -0.056 49 61 74
-0.208 -0.064 -0.048 148 142 148
-0.208 -0.056 -0.048 107 117 115
-0.2 -0.056 -0.048 107 121 115
-0.2 -0.048 -0.048 123 117 123
-0.2 -0.04 -0.048 123 121 140
-0.208 -0.064 -0.04 66 77 66
-0.2 -0.064 -0.04 74 69 82
-0.208 -0.056 -0.04 66 77 66
-0.2 -0.056 -0.04 74 77 74
-0.2 -0.048 -0.04 82 85 82
-0.208 -0.064 -0.032 41 57 49
-0.2 -0.064 -0.032 41 73 58
-0.2 -0.056 -0.032 25 53 41
-0.2 -0.048 -0.032 41 69 58
-0.2 -0.064 -0.024 90 97 99
-0.208 -0.064 -0.016 214 223 222
-0.2 -0.064 -0.016 230 231 247
-0.208 -0.064 -0.008 214 215 247
-0.2 -0.064 -0.008 222 215 239
-0.192 -0.032 -0.064 140 125 140
-0.168 -0.032 -0.064 230 190 140
-0.192 -0.024 -0.064 115 125 132
-0.152 -0.04 -0.056 239 202 148
-0.192 -0.032 -0.056 58 81 74
-0.16 -0.032 -0.056 239 210 165
-0.152 -0.032 -0.056 239 206 156
-0.144 -0.032 -0.056 230 190 123
-0.136 -0.032 -0.056 230 206 156
-0.192 -0.024 -0.056 74 69 90
-0.168 -0.024 -0.056 239 215 173
-0.192 -0.016 -0.056 107 93 115
-0.184 -0.016 -0.056 156 158 165
-0.136 -0.016 -0.056 214 182 140
-0.136 -0.008 -0.056 197 158 115
-0.192 -0.04 -0.048 99 113 123
-0.152 -0.04 -0.048 247 223 197
-0.192 -0.032 -0.048 66 89 90
-0.192 -0.024 -0.048 66 93 107
-0.184 -0.024 -0.048 74 81 99
-0.152 -0.024 -0.048 239 219 189
-0.144 -0.024 -0.048 239 215 173
-0.136 -0.024 -0.048 230 194 140
-0.184 -0.016 -0.048 74 101 115
-0.144 -0.016 -0.048 222 194 140
-0.136 -0.016 -0.048 222 178 107
-0.184 -0.008 -0.048 66 101 115
-0.176 -0.008 -0.048 123 125 123
-0.144 -0.008 -0.048 214 178 123
-0.192 -0.04 -0.04 107 113 115
-0.192 -0.032 -0.04 140 142 140
-0.184 -0.032 -0.04 132 142 140
-0.184 -0.024 -0.04 132 130 123
-0.184 -0.016 -0.04 115 109 115
-0.176 -0.016 -0.04 74 134 148
-0.176 -0.008 -0.04 74 130 115
-0.192 -0.048 -0.032 49 77 66
-0.192 -0.04 -0.032 66 57 58
-0.184 -0.04 -0.032 33 77 49
-0.192 -0.032 -0.032 99 121 107
-0.184 -0.032 -0.032 99 113 99
-0.184 -0.024 -0.032 148 105 99
-0.176 -0.024 -0.032 123 130 123
-0.184 -0.016 -0.032 132 130 132
-0.176 -0.016 -0.032 16 20 25
-0.176 -0.008 -0.032 16 20 25
-0.168 -0.008 -0.032 49 53 49
-0.192 -0.056 -0.024 74 85 74
-0.184 -0.048 -0.024 41 32 41
-0.184 -0.04 -0.024 107 57 99
-0.176 -0.04 -0.024 99 53 90
-0.176 -0.032 -0.024 99 53 90
-0.176 -0.024 -0.024 41 49 49
-0.176 -0.016 -0.024 115 53 58
-0.168 -0.016 -0.024 123 53 49
-0.176 -0.008 -0.024 107 45 41
-0.168 -0.008 -0.024 107 49 49
-0.192 -0.056 -0.016 230 239 247
-0.184 -0.056 -0.016 222 231 239
-0.184 -0.048 -0.016 214 202 206
-0.176 -0.048 -0.016 156 166 165
-0.168 -0.04 -0.016 156 166 173
-0.16 -0.032 -0.016 140 178 197
-0.16 -0.024 -0.016 140 146 173
-0.16 -0.016 -0.016 140 138 156
-0.16 -0.008 -0.016 148 150 173
-0.152 -0.008 -0.016 173 150 165
-0.192 -0.064 -0.008 214 223 239
-0.192 -0.056 -0.008 222 231 247
-0.184 -0.056 -0.008 222 227 247
-0.176 -0.048 -0.008 222 231 255
-0.168 -0.048 -0.008 222 231 255
-0.16 -0.04 -0.008 82 170 255
-0.152 -0.04 -0.008 0 150 255
-0.16 -0.032 -0.008 0 105 255
-0.152 -0.032 -0.008 0 109 255
-0.152 -0.024 -0.008 0 65 247
-0.144 -0.024 -0.008 33 77 247
-0.152 -0.016 -0.008 41 121 239
-0.144 -0.016 -0.008 41 117 255
-0.152 -0.008 -0.008 25 97 255
-0.144 -0.008 -0.008 49 101 255
-0.096 -0.064 -0.112 58 57 58
-0.088 -0.064 -0.112 58 57 58
-0.08 -0.064 -0.112 49 40 41
-0.072 -0.064 -0.112 140 130 132
-0.104 -0.056 -0.112 58 57 58
-0.096 -0.056 -0.112 58 61 58
-0.088 -0.056 -0.112 58 57 58
-0.08 -0.056 -0.112 49 45 49
-0.072 -0.056 -0.112 148 150 148
-0.104 -0.048 -0.112 58 57 58
-0.096 -0.048 -0.112 58 61 58
-0.088 -0.048 -0.112 58 61 58
-0.08 -0.048 -0.112 74 69 74
-0.072 -0.048 -0.112 148 154 148
-0.104 -0.04 -0.112 58 57 58
-0.096 -0.04 -0.112 58 57 58
-0.088 -0.04 -0.112 66 61 66
-0.08 -0.04 -0.112 90 89 90
-0.072 -0.04 -0.112 140 150 132
-0.096 -0.032 -0.112 49 49 49
-0.088 -0.032 -0.112 58 61 58
-0.08 -0.032 -0.112 99 97 90
-0.072 -0.032 -0.112 148 150 148
-0.096 -0.024 -0.112 66 65 66
-0.088 -0.024 -0.112 58 61 66
-0.08 -0.024 -0.112 107 105 107
-0.072 -0.024 -0.112 148 154 148
-0.096 -0.016 -0.112 66 61 66
-0.088 -0.016 -0.112 66 65 66
-0.08 -0.016 -0.112 66 73 66
-0.072 -0.016 -0.112 148 146 148
-0.096 -0.008 -0.112 66 65 66
-0.088 -0.008 -0.112 58 65 58
-0.08 -0.008 -0.112 49 45 49
-0.072 -0.008 -0.112 165 150 148
-0.128 -0.064 -0.104 49 53 49
-0.12 -0.064 -0.104 58 53 58
-0.112 -0.064 -0.104 58 57 58
-0.104 -0.064 -0.104 58 57 58
-0.096 -0.064 -0.104 58 53 58
-0.088 -0.064 -0.104 58 57 58
-0.08 -0.064 -0.104 49 53 49
-0.072 -0.064 -0.104 82 93 82
-0.128 -0.056 -0.104 49 53 58
-0.12 -0.056 -0.104 49 53 49
-0.112 -0.056 -0.104 49 49 49
-0.104 -0.056 -0.104 49 57 49
-0.096 -0.056 -0.104 58 61 58
-0.088 -0.056 -0.104 66 65 66
-0.08 -0.056 -0.104 58 61 58
-0.072 -0.056 -0.104 82 97 74
-0.128 -0.048 -0.104 49 45 49
-0.12 -0.048 -0.104 49 53 49
-0.112 -0.048 -0.104 49 53 58
-0.104 -0.048 -0.104 49 53 49
-0.096 -0.048 -0.104 58 57 58
-0.088 -0.048 -0.104 58 57 58
-0.08 -0.048 -0.104 58 61 58
-0.072 -0.048 -0.104 74 93 74
-0.128 -0.04 -0.104 33 32 33
-0.12 -0.04 -0.104 49 49 49
-0.112 -0.04 -0.104 49 53 49
-0.104 -0.04 -0.104 49 53 49
-0.096 -0.04 -0.104 58 53 58
-0.088 -0.04 -0.104 58 57 58
-0.08 -0.04 -0.104 58 61 58
-0.072 -0.04 -0.104 90 101 90
-0.12 -0.032 -0.104 82 81 74
-0.112 -0.032 -0.104 41 45 41
-0.104 -0.032 -0.104 58 53 58
-0.096 -0.032 -0.104 49 53 49
-0.088 -0.032 -0.104 58 57 58
-0.08 -0.032 -0.104 58 61 58
-0.072 -0.032 -0.104 99 101 90
-0.112 -0.024 -0.104 33 32 33
-0.104 -0.024 -0.104 58 53 58
-0.096 -0.024 -0.104 58 53 58
-0.088 -0.024 -0.104 58 65 58
-0.08 -0.024 -0.104 49 53 49
-0.072 -0.024 -0.104 123 130 123
-0.112 -0.016 -0.104 33 40 33
-0.104 -0.016 -0.104 49 36 41
-0.096 -0.016 -0.104 58 61 58
-0.088 -0.016 -0.104 66 69 66
-0.08 -0.016 -0.104 58 61 58
-0.072 -0.016 -0.104 140 134 132
-0.112 -0.008 -0.104 58 53 58
-0.104 -0.008 -0.104 107 73 58
-0.096 -0.008 -0.104 58 53 49
-0.088 -0.008 -0.104 66 65 66
-0.08 -0.008 -0.104 66 65 66
-0.128 -0.04 -0.096 66 53 58
-0.12 -0.04 -0.096 74 65 74
-0.12 -0.032 -0.096 115 117 82
-0.112 -0.032 -0.096 33 32 33
-0.112 -0.024 -0.096 115 109 90
-0.104 -0.016 -0.096 33 40 33
-0.104 -0.008 -0.096 132 93 58
-0.12 -0.032 -0.088 173 162 148
-0.112 -0.024 -0.088 181 170 156
-0.104 -0.016 -0.088 107 109 99
-0.104 -0.008 -0.088 140 105 66
-0.12 -0.032 -0.08 197 178 173
-0.112 -0.032 -0.08 173 162 148
-0.112 -0.024 -0.08 181 170 148
-0.112 -0.016 -0.08 181 162 140
-0.104 -0.016 -0.08 197 174 165
-0.112 -0.008 -0.08 173 170 132
-0.104 -0.008 -0.08 140 134 66
-0.12 -0.032 -0.072 189 178 173
-0.112 -0.032 -0.072 173 162 148
-0.112 -0.024 -0.072 181 174 156
-0.112 -0.016 -0.072 156 146 115
-0.104 -0.016 -0.072 181 158 140
-0.112 -0.008 -0.072 132 109 74
-0.112 0.064 -0.112 90 89 90
-0.104 0.064 -0.112 82 93 82
-0.096 0.064 -0.112 90 93 90
-0.088 0.064 -0.112 107 97 107
-0.08 0.064 -0.112 99 101 99
-0.112 0.072 -0.112 99 97 99
-0.104 0.072 -0.112 99 89 90
-0.096 0.072 -0.112 115 113 115
-0.088 0.072 -0.112 115 109 115
-0.112 0.08 -0.112 90 93 90
-0.104 0.08 -0.112 123 117 115
-0.096 0.08 -0.112 115 117 115
-0.128 0.064 -0.104 82 85 82
-0.12 0.064 -0.104 90 89 90
-0.112 0.064 -0.104 90 97 90
-0.128 0.072 -0.104 82 85 82
-0.12 0.072 -0.104 82 85 82
-0.112 0.072 -0.104 90 93 90
-0.096 0.072 -0.104 115 113 115
-0.088 0.072 -0.104 115 113 115
-0.128 0.08 -0.104 82 85 90
-0.12 0.08 -0.104 82 85 82
-0.112 0.08 -0.104 115 109 115
-0.104 0.08 -0.104 115 117 123
-0.128 0.088 -0.104 90 85 82
-0.12 0.088 -0.104 115 113 115
-0.112 0.088 -0.104 107 113 115
-0.128 0.096 -0.104 99 101 99
-0.12 0.096 -0.104 99 109 107
-0.112 0.096 -0.104 115 109 115
-0.12 0.104 -0.104 107 109 107
-0.128 0.088 -0.096 107 105 107
-0.128 0.096 -0.096 107 113 107
-0.12 0.096 -0.096 107 105 107
-0.128 0.104 -0.096 115 113 115
-0.064 0 -0.128 25 28 33
-0.056 0 -0.128 25 24 25
-0.048 0 -0.128 25 28 33
-0.064 0.008 -0.128 16 16 16
-0.056 0.008 -0.128 16 16 16
-0.048 0.008 -0.128 41 45 41
-0.064 0.016 -0.128 25 36 33
-0.056 0.016 -0.128 33 40 41
-0.048 0.016 -0.128 8 16 25
-0.04 0.016 -0.128 25 20 16
-0.064 0.024 -0.128 25 28 33
-0.056 0.024 -0.128 25 24 16
-0.048 0.024 -0.128 33 49 49
-0.064 0.032 -0.128 58 53 66
-0.056 0.032 -0.128 49 61 66
-0.048 0.032 -0.128 41 45 49
-0.064 0.04 -0.128 33 40 41
-0.056 0.04 -0.128 66 69 74
-0.064 0.048 -0.128 16 28 25
-0.056 0.048 -0.128 66 61 66
-0.064 0.056 -0.128 41 45 41
-0.064 0 -0.12 33 36 33
-0.064 0.008 -0.12 8 12 16
-0.064 0.016 -0.12 16 16 16
-0.064 0.024 -0.12 49 53 58
-0.064 0.032 -0.12 33 36 41
-0.064 0.04 -0.12 16 24 33
-0.064 0.048 -0.12 25 24 25
-0.152 0.032 -0.112 66 69 66
-0.144 0.032 -0.112 66 69 66
-0.16 0.04 -0.112 66 69 66
-0.152 0.04 -0.112 66 65 66
-0.152 0.032 -0.104 66 69 74
-0.144 0.032 -0.104 66 65 66
-0.152 0.04 -0.104 66 65 66
-0.144 0.04 -0.104 66 69 66
-0.136 0.048 -0.104 66 69 74
-0.144 0.056 -0.104 74 77 74
-0.136 0.056 -0.104 74 77 74
-0.184 0.032 -0.096 66 69 66
-0.176 0.032 -0.096 66 65 66
-0.168 0.032 -0.096 66 65 66
-0.192 0.04 -0.096 41 36 41
-0.184 0.04 -0.096 66 65 66
-0.16 0.04 -0.096 66 69 66
-0.152 0.04 -0.096 74 73 74
-0.168 0.048 -0.096 74 73 74
-0.16 0.048 -0.096 74 73 74
-0.152 0.048 -0.096 74 73 74
-0.144 0.048 -0.096 74 73 74
-0.16 0.056 -0.096 74 77 74
-0.152 0.056 -0.096 82 81 82
-0.144 0.056 -0.096 74 77 74
-0.192 0.032 -0.088 16 32 25
-0.176 0.032 -0.088 58 57 58
-0.152 0.032 -0.088 66 69 66
-0.192 0.04 -0.088 25 32 25
-0.184 0.04 -0.088 8 16 8
-0.176 0.04 -0.088 33 45 33
-0.168 0.04 -0.088 74 73 74
-0.16 0.04 -0.088 66 69 66
-0.168 0.048 -0.088 74 73 74
-0.16 0.048 -0.088 74 73 74
-0.168 0.056 -0.088 74 69 74
-0.16 0.056 -0.088 66 69 66
-0.176 0.032 -0.08 33 45 33
-0.152 0.032 -0.08 181 150 181
-0.176 0.048 -0.08 8 12 8
-0.168 0.048 -0.08 0 4 0
-0.176 0.056 -0.08 0 4 0
-0.168 0.056 -0.08 49 49 41
-0.136 0.024 -0.072 230 227 214
-0.152 0.032 -0.072 173 182 165
-0.176 0.048 -0.072 33 32 41
-0.176 0.056 -0.072 49 53 66
-0.168 0.056 -0.072 25 32 33
-0.16 -0.088 -0.104 41 49 49
-0.152 -0.088 -0.104 41 49 49
-0.144 -0.088 -0.104 41 49 49
-0.136 -0.088 -0.104 49 49 49
-0.16 -0.08 -0.104 41 45 41
-0.152 -0.08 -0.104 41 45 41
-0.144 -0.08 -0.104 49 53 49
-0.136 -0.08 -0.104 49 53 49
-0.16 -0.072 -0.104 33 36 33
-0.152 -0.072 -0.104 41 40 41
-0.144 -0.072 -0.104 49 53 49
-0.136 -0.072 -0.104 49 53 58
-0.184 -0.088 -0.096 49 49 49
-0.176 -0.088 -0.096 41 45 41
-0.168 -0.088 -0.096 41 49 49
-0.16 -0.088 -0.096 49 49 49
-0.152 -0.088 -0.096 49 49 49
-0.144 -0.088 -0.096 49 53 49
-0.136 -0.088 -0.096 49 45 49
-0.192 -0.08 -0.096 49 53 49
-0.184 -0.08 -0.096 49 49 49
-0.176 -0.08 -0.096 41 45 41
-0.168 -0.08 -0.096 49 45 49
-0.16 -0.08 -0.096 41 45 49
-0.152 -0.08 -0.096 41 45 49
-0.184 -0.072 -0.096 41 45 41
-0.176 -0.072 -0.096 41 45 41
-0.168 -0.072 -0.096 33 36 33
-0.16 -0.072 -0.096 33 36 33
-0.192 -0.096 -0.088 41 49 49
-0.184 -0.096 -0.088 41 49 49
-0.176 -0.096 -0.088 49 49 49
-0.144 -0.096 -0.088 49 53 49
-0.192 -0.088 -0.088 49 49 49
-0.184 -0.088 -0.088 49 49 49
-0.176 -0.088 -0.088 49 53 49
-0.136 -0.088 -0.088 49 53 49
-0.192 -0.08 -0.088 49 53 49
-0.192 -0.072 -0.088 25 28 25
-0.184 -0.072 -0.088 41 45 41
-0.192 -0.096 -0.08 41 49 49
-0.184 -0.096 -0.08 49 49 49
-0.176 -0.096 -0.08 49 53 49
-0.168 -0.096 -0.08 58 53 58
-0.16 -0.096 -0.08 58 57 58
-0.152 -0.096 -0.08 49 53 49
-0.192 -0.104 -0.072 49 49 49
-0.048 0.04 -0.144 66 57 74
-0.056 0 -0.136 16 24 33
-0.056 0.008 -0.136 41 32 41
-0.048 0.008 -0.136 16 24 16
-0.056 0.016 -0.136 41 57 58
-0.048 0.016 -0.136 33 40 41
-0.056 0.024 -0.136 33 40 41
-0.048 0.024 -0.136 66 61 74
-0.056 0.032 -0.136 25 16 25
-0.048 0.032 -0.136 66 57 74
-0.048 0.04 -0.136 58 57 74
-0.056 0.048 -0.136 41 53 58
-0.064 0.056 -0.136 41 45 49
-0.192 -0.064 0 214 219 247
-0.192 -0.056 0 214 227 247
-0.184 -0.056 0 214 227 247
-0.184 -0.048 0 222 231 255
-0.176 -0.048 0 222 231 255
-0.168 -0.04 0 90 186 255
-0.16 -0.04 0 99 190 255
-0.16 -0.032 0 0 89 255
-0.152 -0.032 0 0 93 255
-0.152 -0.024 0 0 61 255
-0.144 -0.024 0 0 65 255
-0.152 -0.016 0 0 65 214
-0.144 -0.016 0 0 61 239
-0.152 -0.008 0 0 69 239
-0.144 -0.008 0 0 85 247
-0.192 -0.048 0.008 222 227 247
-0.184 -0.048 0.008 222 223 247
-0.176 -0.04 0.008 173 215 255
-0.168 -0.04 0.008 214 227 255
-0.16 -0.032 0.008 16 162 255
-0.152 -0.032 0.008 16 182 255
-0.16 -0.024 0.008 16 121 255
-0.152 -0.024 0.008 8 117 255
-0.152 -0.016 0.008 0 93 239
-0.144 -0.016 0.008 0 101 247
-0.152 -0.008 0.008 0 36 247
-0.144 -0.008 0.008 0 53 239
-0.192 -0.056 0.016 214 219 247
-0.192 -0.048 0.016 214 223 247
-0.184 -0.048 0.016 214 223 247
-0.192 -0.04 0.016 132 202 247
-0.184 -0.04 0.016 140 194 255
-0.184 -0.032 0.016 0 170 255
-0.176 -0.032 0.016 0 166 255
-0.184 -0.024 0.016 0 138 255
-0.176 -0.024 0.016 0 121 255
-0.176 -0.016 0.016 0 65 255
-0.176 -0.008 0.016 0 36 255
-0.168 -0.008 0.016 0 40 255
-0.152 0.128 -0.08 90 89 90
-0.16 0.128 -0.072 90 93 90
-0.152 0.128 -0.072 99 101 99
-0.056 -0.016 -0.136 33 28 33
-0.2 0.04 -0.088 33 36 33
-0.208 0.048 -0.088 25 32 41
-0.2 0.048 -0.088 33 36 33
-0.208 0.04 -0.08 33 40 58
-0.2 0.04 -0.08 25 32 25
-0.072 0 -0.12 115 125 123
-0.072 0.008 -0.12 107 109 107
-0.072 0.016 -0.12 107 109 107
-0.072 0.024 -0.12 99 97 90
-0.072 0.032 -0.12 107 113 107
-0.072 0.04 -0.12 115 109 99
-0.072 0.048 -0.12 173 130 173
-0.072 0.056 -0.12 140 142 140
-0.088 0 -0.112 74 73 74
-0.08 0 -0.112 49 49 49
-0.072 0 -0.112 115 138 115
-0.088 0.008 -0.112 66 69 66
-0.08 0.008 -0.112 115 109 115
-0.072 0.008 -0.112 148 158 140
-0.096 0.016 -0.112 82 77 82
-0.088 0.016 -0.112 74 77 74
-0.08 0.016 -0.112 132 125 132
-0.072 0.016 -0.112 181 166 173
-0.104 0.024 -0.112 74 77 74
-0.096 0.024 -0.112 74 73 74
-0.088 0.024 -0.112 82 81 82
-0.08 0.024 -0.112 140 130 140
-0.072 0.024 -0.112 165 158 156
-0.112 0.032 -0.112 90 85 90
-0.104 0.032 -0.112 90 85 90
-0.096 0.032 -0.112 90 85 90
-0.088 0.032 -0.112 90 89 90
-0.08 0.032 -0.112 148 142 140
-0.072 0.032 -0.112 140 142 132
-0.12 0.04 -0.112 74 81 74
-0.112 0.04 -0.112 90 89 90
-0.104 0.04 -0.112 90 89 90
-0.096 0.04 -0.112 82 85 82
-0.088 0.04 -0.112 107 93 107
-0.08 0.04 -0.112 123 117 115
-0.072 0.04 -0.112 156 150 156
-0.128 0.048 -0.112 74 77 74
-0.12 0.048 -0.112 82 81 82
-0.112 0.048 -0.112 99 93 90
-0.104 0.048 -0.112 90 93 90
-0.096 0.048 -0.112 90 93 90
-0.088 0.048 -0.112 99 93 99
-0.08 0.048 -0.112 140 125 123
-0.072 0.048 -0.112 156 154 140
-0.112 0.056 -0.112 99 97 99
-0.104 0.056 -0.112 99 101 99
-0.096 0.056 -0.112 99 97 99
-0.088 0.056 -0.112 90 93 99
-0.08 0.056 -0.112 74 89 66
-0.072 0.056 -0.112 181 170 165
-0.104 0 -0.104 214 158 90
-0.096 0 -0.104 140 109 90
-0.088 0 -0.104 74 73 74
-0.096 0.008 -0.104 74 73 74
-0.088 0.008 -0.104 74 77 74
-0.112 0.024 -0.104 82 81 82
-0.12 0.032 -0.104 74 73 74
-0.128 0.04 -0.104 74 77 74
-0.128 0.048 -0.104 74 77 74
-0.12 0.048 -0.104 82 81 82
-0.128 0.056 -0.104 74 77 74
-0.12 0.056 -0.104 90 89 90
-0.112 0 -0.096 197 142 99
-0.104 0 -0.096 197 150 90
-0.096 0 -0.096 132 121 82
-0.096 0.008 -0.096 74 77 74
-0.104 0.016 -0.096 74 73 74
-0.112 0.024 -0.096 74 77 82
-0.12 0.032 -0.096 74 73 74
-0.128 0.04 -0.096 74 73 74
-0.112 0 -0.088 206 162 107
-0.112 0.008 -0.088 214 170 115
-0.104 0.008 -0.088 173 142 90
-0.104 0.016 -0.088 222 178 123
-0.112 0.024 -0.088 230 182 140
-0.112 0 -0.08 206 154 107
-0.112 0.008 -0.08 230 186 140
-0.104 0.008 -0.08 222 170 115
-0.112 0.016 -0.08 222 178 132
-0.104 0.016 -0.08 222 178 132
-0.128 0.024 -0.08 222 166 115
-0.112 0.024 -0.08 222 174 123
-0.112 0 -0.072 197 146 99
-0.12 0.008 -0.072 222 166 107
-0.112 0.008 -0.072 222 170 107
-0.128 0.016 -0.072 214 158 107
-0.12 0.016 -0.072 222 170 132
-0.112 0.016 -0.072 214 166 107
-0.216 0.056 -0.032 99 109 90
-0.144 0.064 -0.104 82 77 74
-0.136 0.064 -0.104 82 81 82
-0.136 0.072 -0.104 82 81 82
-0.136 0.08 -0.104 82 81 82
-0.16 0.064 -0.096 74 77 74
-0.152 0.064 -0.096 82 81 82
-0.144 0.064 -0.096 82 77 74
-0.152 0.072 -0.096 74 77 74
-0.144 0.072 -0.096 82 85 82
-0.136 0.072 -0.096 90 89 90
-0.152 0.08 -0.096 82 85 90
-0.144 0.08 -0.096 90 89 90
-0.136 0.08 -0.096 90 89 90
-0.144 0.088 -0.096 82 93 90
-0.136 0.088 -0.096 90 89 90
-0.144 0.096 -0.096 90 93 90
-0.136 0.096 -0.096 107 113 115
-0.144 0.104 -0.096 107 105 107
-0.136 0.104 -0.096 107 109 107
-0.136 0.112 -0.096 107 105 99
-0.168 0.064 -0.088 74 77 74
-0.16 0.064 -0.088 74 77 74
-0.152 0.064 -0.088 74 77 74
-0.16 0.072 -0.088 82 85 82
-0.152 0.072 -0.088 74 81 82
-0.16 0.08 -0.088 82 81 82
-0.152 0.08 -0.088 90 93 99
-0.16 0.088 -0.088 99 93 90
-0.152 0.088 -0.088 90 89 90
-0.144 0.088 -0.088 99 101 107
-0.152 0.096 -0.088 90 93 90
-0.144 0.096 -0.088 99 101 99
-0.152 0.104 -0.088 90 97 90
-0.144 0.104 -0.088 99 97 99
-0.136 0.104 -0.088 99 97 99
-0.152 0.112 -0.088 90 97 90
-0.144 0.112 -0.088 99 93 99
-0.136 0.112 -0.088 99 97 99
-0.144 0.12 -0.088 90 93 90
-0.168 0.064 -0.08 33 45 33
-0.168 0.072 -0.08 49 36 49
-0.16 0.072 -0.08 58 53 49
-0.168 0.08 -0.08 49 49 49
-0.16 0.08 -0.08 49 53 58
-0.16 0.088 -0.08 41 40 41
-0.16 0.096 -0.08 82 61 82
-0.152 0.096 -0.08 99 101 99
-0.16 0.104 -0.08 99 105 107
-0.152 0.104 -0.08 99 97 99
-0.16 0.112 -0.08 99 97 99
-0.152 0.112 -0.08 90 89 90
-0.16 0.12 -0.08 99 93 99
-0.152 0.12 -0.08 99 93 99
-0.144 0.12 -0.08 90 89 90
-0.176 0.064 -0.072 49 57 74
-0.168 0.064 -0.072 49 53 58
-0.176 0.072 -0.072 25 32 25
-0.168 0.072 -0.072 66 53 74
-0.168 0.08 -0.072 58 49 58
-0.168 0.088 -0.072 49 45 49
-0.16 0.088 -0.072 58 61 74
-0.168 0.096 -0.072 49 57 58
-0.16 0.096 -0.072 90 97 99
-0.168 0.104 -0.072 99 85 99
-0.16 0.104 -0.072 90 93 90
-0.168 0.112 -0.072 99 97 90
-0.16 0.112 -0.072 99 97 99
-0.16 0.12 -0.072 90 93 90
-0.152 0.12 -0.072 90 93 90
-0.152 -0.064 -0.104 25 32 33
-0.144 -0.064 -0.104 41 45 41
-0.136 -0.064 -0.104 49 53 49
-0.152 -0.056 -0.104 25 28 25
-0.144 -0.056 -0.104 25 28 25
-0.136 -0.056 -0.104 41 45 41
-0.144 -0.048 -0.104 16 20 25
-0.136 -0.048 -0.104 41 36 41
-0.184 -0.064 -0.096 41 40 41
-0.176 -0.064 -0.096 41 36 41
-0.168 -0.064 -0.096 25 28 25
-0.16 -0.064 -0.096 25 28 25
-0.152 -0.064 -0.096 25 32 33
-0.176 -0.056 -0.096 16 24 16
-0.168 -0.056 -0.096 16 20 16
-0.16 -0.056 -0.096 16 20 16
-0.152 -0.056 -0.096 16 20 16
-0.144 -0.056 -0.096 25 28 33
-0.176 -0.048 -0.096 41 28 41
-0.168 -0.048 -0.096 33 28 33
-0.16 -0.048 -0.096 8 12 16
-0.152 -0.048 -0.096 8 8 8
-0.144 -0.048 -0.096 8 16 16
-0.136 -0.048 -0.096 16 20 25
-0.168 -0.04 -0.096 58 49 49
-0.16 -0.04 -0.096 58 40 58
-0.152 -0.04 -0.096 58 49 58
-0.144 -0.04 -0.096 82 73 82
-0.136 -0.04 -0.096 41 53 25
-0.192 -0.064 -0.088 33 24 33
-0.184 -0.064 -0.088 33 36 33
-0.192 -0.056 -0.088 16 24 16
-0.184 -0.056 -0.088 41 36 41
-0.176 -0.056 -0.088 33 36 33
-0.192 -0.048 -0.088 25 20 25
-0.184 -0.048 -0.088 66 53 66
-0.176 -0.048 -0.088 74 61 74
-0.192 -0.04 -0.088 41 40 41
-0.184 -0.04 -0.088 82 61 74
-0.176 -0.04 -0.088 49 49 49
-0.168 -0.04 -0.088 66 57 58
-0.176 -0.032 -0.088 99 89 82
-0.168 -0.032 -0.088 99 101 107
-0.192 -0.048 -0.08 58 45 58
-0.192 -0.04 -0.08 58 57 66
-0.192 -0.032 -0.08 49 49 58
-0.184 -0.032 -0.08 82 73 82
-0.176 -0.032 -0.08 82 77 82
-0.168 -0.032 -0.08 115 105 107
-0.192 -0.032 -0.072 115 97 148
-0.184 -0.032 -0.072 82 101 107
-0.176 -0.032 -0.072 123 97 123
-0.168 -0.032 -0.072 132 101 115
-0.224 0.096 -0.064 58 57 66
-0.216 0.072 -0.04 156 142 156
-0.216 0.08 -0.04 156 134 156
-0.208 0.112 -0.04 173 162 140
-0.216 0.064 -0.032 132 146 132
-0.208 0.072 -0.032 132 138 123
-0.208 0.08 -0.032 197 146 189
-0.2 0.104 -0.032 189 182 181
-0.2 0.112 -0.032 156 158 140
-0.056 -0.024 -0.128 33 36 41
-0.064 -0.016 -0.128 33 36 41
-0.056 -0.016 -0.128 16 20 25
-0.064 -0.008 -0.128 33 36 41
-0.056 -0.008 -0.128 16 24 25
-0.064 -0.056 -0.12 132 158 123
-0.064 -0.048 -0.12 99 105 99
-0.064 -0.04 -0.12 74 73 82
-0.064 -0.032 -0.12 33 20 33
-0.064 -0.024 -0.12 33 57 41
-0.056 -0.024 -0.12 41 40 41
-0.064 -0.016 -0.12 33 36 33
-0.056 -0.016 -0.12 25 24 33
-0.064 -0.008 -0.12 33 36 41
-0.056 -0.008 -0.12 16 24 25
-0.064 -0.064 -0.112 148 146 140
-0.064 -0.056 -0.112 156 142 148
-0.064 -0.048 -0.112 123 113 115
-0.064 -0.04 -0.112 107 101 107
-0.064 -0.032 -0.112 74 97 82
-0.064 -0.024 -0.112 74 89 74
-0.064 -0.016 -0.112 99 109 99
-0.064 -0.008 -0.112 107 117 107
-0.064 -0.056 -0.104 214 190 197
-0.064 -0.048 -0.104 148 142 140
-0.064 -0.04 -0.104 156 142 140
-0.192 -0.08 0 189 182 173
-0.184 -0.08 0 197 198 156
-0.184 -0.072 0.016 90 97 74
-0.216 0.128 -0.08 99 93 90
-0.12 0 -0.064 214 198 173
-0.112 0 -0.064 206 174 132
-0.12 0.008 -0.064 214 194 148
-0.128 0.016 -0.064 230 227 214
-0.128 0 -0.056 230 202 189
-0.12 0 -0.056 230 227 206
-0.128 0.008 -0.056 230 227 206
-0.128 0.056 -0.016 115 130 123
-0.128 0.04 -0.008 173 182 156
-0.128 0.048 -0.008 222 215 214
-0.128 0.056 -0.008 255 251 255
-0.12 0.056 -0.008 255 255 255
-0.128 -0.032 -0.064 214 202 189
-0.12 -0.032 -0.064 206 190 181
-0.12 -0.024 -0.064 197 182 173
-0.112 -0.024 -0.064 181 174 156
-0.112 -0.016 -0.064 156 158 132
-0.112 -0.008 -0.064 173 142 107
-0.128 -0.032 -0.056 222 210 197
-0.12 -0.032 -0.056 214 202 189
-0.128 -0.024 -0.056 197 194 156
-0.12 -0.024 -0.056 189 186 156
-0.112 -0.024 -0.056 189 174 156
-0.128 -0.016 -0.056 222 198 165
-0.12 -0.016 -0.056 230 219 206
-0.112 -0.016 -0.056 230 219 197
-0.128 -0.008 -0.056 206 186 156
-0.12 -0.008 -0.056 230 227 206
-0.112 -0.008 -0.056 230 219 197
-0.176 0.064 -0.064 41 32 41
-0.168 0.064 -0.064 66 65 74
-0.176 0.072 -0.064 33 40 33
-0.168 0.072 -0.064 49 45 49
-0.176 0.08 -0.064 33 45 41
-0.168 0.08 -0.064 58 45 66
-0.168 0.088 -0.064 82 85 82
-0.168 0.096 -0.064 90 93 90
-0.168 0.104 -0.064 90 93 90
-0.168 0.112 -0.064 90 89 90
-0.16 0.112 -0.064 82 81 82
-0.168 0.12 -0.064 90 85 90
-0.16 0.12 -0.064 66 77 74
-0.176 0.064 -0.056 90 77 107
-0.168 0.064 -0.056 66 57 74
-0.168 0.072 -0.056 82 69 82
-0.168 0.08 -0.056 132 130 132
-0.168 0.088 -0.056 123 113 115
-0.168 0.096 -0.056 107 105 99
-0.168 0.104 -0.056 148 146 140
-0.16 0.104 -0.056 239 202 230
-0.16 0.112 -0.056 148 158 140
-0.152 0.12 -0.056 132 142 132
-0.168 0.064 -0.048 148 130 148
-0.168 0.072 -0.048 173 186 173
-0.16 0.08 -0.048 197 190 189
-0.16 0.088 -0.048 197 198 189
-0.16 0.096 -0.048 197 194 189
-0.152 0.096 -0.048 222 206 214
-0.152 0.104 -0.048 214 215 206
-0.16 0.064 -0.04 148 154 148
-0.16 0.072 -0.04 148 138 140
-0.152 0.072 -0.04 156 158 148
-0.152 0.08 -0.04 82 101 66
-0.152 0.088 -0.04 123 81 74
-0.144 0.088 -0.04 156 117 115
-0.144 0.096 -0.04 148 142 140
-0.152 0.064 -0.032 140 73 90
-0.144 0.064 -0.032 82 45 25
-0.144 0.072 -0.032 115 32 33
-0.144 0.08 -0.032 140 81 99
-0.136 0.08 -0.032 156 142 132
-0.136 0.088 -0.032 140 125 115
-0.136 0.096 -0.032 132 121 107
-0.136 0.064 -0.024 140 125 107
-0.136 0.072 -0.024 148 142 123
-0.136 0.024 -0.064 222 223 206
-0.176 0.04 -0.064 41 36 41
-0.176 0.048 -0.064 58 57 66
-0.176 0.056 -0.064 58 65 66
-0.144 0 -0.056 197 138 74
-0.136 0 -0.056 206 174 148
-0.144 0.008 -0.056 214 174 140
-0.136 0.008 -0.056 222 219 197
-0.144 0.016 -0.056 230 215 230
-0.136 0.016 -0.056 230 215 206
-0.176 0.024 -0.056 214 219 206
-0.168 0.024 -0.056 214 206 206
-0.16 0.024 -0.056 222 206 206
-0.176 0.032 -0.056 49 49 66
-0.176 0.04 -0.056 66 65 82
-0.176 0.048 -0.056 82 77 90
-0.176 0.056 -0.056 33 32 41
-0.176 0 -0.048 99 109 107
-0.176 0.008 -0.048 90 89 107
-0.176 0.016 -0.048 107 89 132
-0.176 0.024 -0.048 115 97 123
-0.176 0.032 -0.048 82 81 115
-0.176 0.04 -0.048 99 101 107
-0.176 0.048 -0.048 165 150 165
-0.168 0.048 -0.048 107 89 107
-0.168 0.056 -0.048 165 130 173
-0.176 0 -0.04 49 53 66
-0.168 0 -0.04 148 166 181
-0.176 0.008 -0.04 82 121 123
-0.168 0.008 -0.04 90 130 140
-0.176 0.016 -0.04 165 101 74
-0.168 0.016 -0.04 107 125 148
-0.168 0.024 -0.04 156 166 173
-0.168 0.032 -0.04 140 134 140
-0.168 0.04 -0.04 123 121 123
-0.168 0.048 -0.04 132 138 132
-0.16 0.048 -0.04 132 117 132
-0.16 0.056 -0.04 173 142 165
-0.176 0 -0.032 16 16 25
-0.168 0 -0.032 123 61 58
-0.168 0.008 -0.032 165 125 107
-0.168 0.016 -0.032 66 61 66
-0.168 0.024 -0.032 107 117 107
-0.16 0.024 -0.032 132 150 132
-0.16 0.032 -0.032 173 142 173
-0.16 0.04 -0.032 156 158 156
-0.16 0.048 -0.032 140 134 132
-0.152 0.048 -0.032 197 194 189
-0.152 0.056 -0.032 189 162 181
-0.168 0 -0.024 123 45 49
-0.168 0.008 -0.024 74 53 58
-0.16 0.008 -0.024 58 57 58
-0.16 0.016 -0.024 115 117 115
-0.16 0.024 -0.024 66 117 66
-0.152 0.024 -0.024 132 130 123
-0.152 0.032 -0.024 165 170 156
-0.152 0.04 -0.024 140 154 123
-0.144 0.04 -0.024 82 101 66
-0.144 0.048 -0.024 123 150 107
-0.144 0.056 -0.024 148 109 123
-0.136 0.056 -0.024 197 93 99
-0.152 0 -0.016 165 150 181
-0.152 0.008 -0.016 173 162 181
-0.152 0.016 -0.016 165 154 181
-0.152 0.024 -0.016 181 154 189
-0.144 0.024 -0.016 214 206 222
-0.144 0.032 -0.016 206 182 214
-0.144 0.04 -0.016 181 170 189
-0.136 0.04 -0.016 107 130 115
-0.136 0.048 -0.016 58 77 58
-0.136 0.056 -0.016 66 89 66
-0.144 0 -0.008 41 109 255
-0.144 0.008 -0.008 16 81 214
-0.144 0.016 -0.008 25 89 230
-0.136 0.016 -0.008 0 61 189
-0.144 0.024 -0.008 8 113 255
-0.136 0.024 -0.008 8 85 255
-0.144 0.032 -0.008 33 105 222
-0.136 0.032 -0.008 206 206 230
-0.136 0.04 -0.008 197 198 222
-0.136 0.048 -0.008 173 121 181
-0.128 0.04 0 140 162 156
-0.128 0.048 0 255 251 255
-0.12 0.048 0 255 251 255
-0.128 0.056 0 239 239 239
-0.12 0.056 0 255 255 255
-0.128 0.032 0.008 148 154 156
-0.128 0.04 0.008 123 130 115
-0.128 0.048 0.008 255 243 255
-0.12 0.048 0.008 255 247 255
-0.128 0.056 0.008 255 251 255
-0.12 0.056 0.008 255 255 255
