ply
format ascii 1.0
element vertex 1055
property float x
property float y
property float z
property uchar red
property uchar green
property uchar blue
end_header
-0.252 0.024 -0.176 173 174 173
-0.256 0.028 -0.176 74 69 74
-0.248 0.024 -0.172 165 162 165
-0.244 0.024 -0.172 115 105 107
-0.24 0.024 -0.172 123 101 99
-0.248 0.028 -0.172 16 20 25
-0.236 0.028 -0.168 16 16 16
-0.232 0.028 -0.168 66 53 49
-0.228 0.028 -0.168 123 101 90
-0.276 0.028 -0.136 66 53 33
-0.272 0.028 -0.132 41 40 25
-0.296 0.028 -0.092 165 134 82
-0.292 0.028 -0.092 189 154 74
-0.272 0.096 -0.092 41 40 25
-0.288 0.024 -0.128 173 117 41
-0.268 0.028 -0.128 0 16 16
-0.28 0.024 -0.124 222 178 66
-0.276 0.024 -0.124 99 73 33
-0.268 0.028 -0.124 8 16 16
-0.276 0.024 -0.12 230 186 82
-0.272 0.024 -0.12 214 158 41
-0.264 0.028 -0.12 58 40 33
-0.28 0.024 -0.116 156 101 33
-0.276 0.024 -0.116 140 93 33
-0.272 0.024 -0.116 189 142 58
-0.264 0.028 -0.116 197 142 25
-0.28 0.024 -0.112 148 85 16
-0.268 0.028 -0.112 189 142 41
-0.264 0.028 -0.112 222 178 66
-0.28 0.024 -0.108 181 113 58
-0.276 0.024 -0.108 156 85 25
-0.268 0.028 -0.108 173 97 41
-0.284 0.024 -0.104 156 117 90
-0.28 0.024 -0.104 181 138 99
-0.276 0.024 -0.104 214 154 107
-0.272 0.028 -0.104 156 89 33
-0.268 0.028 -0.104 148 77 16
-0.288 0.024 -0.1 247 198 82
-0.284 0.024 -0.1 230 178 49
-0.28 0.024 -0.1 214 158 41
-0.276 0.024 -0.1 173 117 25
-0.272 0.028 -0.1 181 117 25
-0.268 0.028 -0.1 165 101 33
-0.3 0.032 -0.092 230 178 33
-0.304 0.044 -0.088 230 182 107
-0.292 0.04 -0.084 239 206 181
-0.292 0.044 -0.08 239 190 49
-0.184 0.084 -0.18 49 49 41
-0.188 0.088 -0.18 49 49 49
-0.188 0.092 -0.18 41 49 41
-0.184 0.092 -0.18 41 49 41
-0.184 0.064 -0.176 156 158 140
-0.184 0.068 -0.176 123 125 115
-0.192 0.072 -0.176 156 158 140
-0.188 0.072 -0.176 206 202 189
-0.184 0.072 -0.176 107 109 90
-0.192 0.076 -0.176 197 190 173
-0.188 0.076 -0.176 206 202 181
-0.184 0.076 -0.176 66 69 58
-0.18 0.076 -0.176 41 40 41
-0.192 0.08 -0.176 140 138 123
-0.188 0.08 -0.176 132 130 123
-0.184 0.08 -0.176 49 49 41
-0.192 0.084 -0.176 25 61 82
-0.188 0.084 -0.176 33 53 66
-0.184 0.084 -0.176 49 49 41
-0.192 0.088 -0.176 8 93 156
-0.188 0.088 -0.176 25 61 74
-0.192 0.092 -0.176 8 93 148
-0.188 0.092 -0.176 41 49 66
-0.192 0.064 -0.172 123 113 107
-0.188 0.064 -0.172 123 117 107
-0.184 0.064 -0.172 173 174 148
-0.18 0.064 -0.172 156 158 140
-0.192 0.068 -0.172 90 89 74
-0.192 0.072 -0.172 156 150 140
-0.192 0.064 -0.168 132 121 115
-0.256 0.04 -0.16 0 0 0
-0.252 0.04 -0.16 0 0 0
-0.256 0.044 -0.16 0 0 0
-0.252 0.044 -0.16 0 0 0
-0.248 0.044 -0.16 0 0 0
-0.252 0.048 -0.16 8 4 8
-0.248 0.048 -0.16 8 0 0
-0.252 0.052 -0.16 0 0 0
-0.248 0.052 -0.16 0 0 0
-0.244 0.052 -0.16 0 0 0
-0.248 0.056 -0.16 0 0 0
-0.244 0.056 -0.16 0 0 0
-0.248 0.06 -0.16 0 0 0
-0.244 0.06 -0.16 0 0 0
-0.24 0.06 -0.16 0 0 0
-0.236 0.06 -0.16 0 0 0
-0.228 0.06 -0.16 16 8 8
-0.256 0.04 -0.156 0 0 0
-0.256 0.044 -0.156 0 0 0
-0.256 0.048 -0.156 0 0 0
-0.252 0.048 -0.156 0 0 0
-0.252 0.052 -0.156 0 0 0
-0.248 0.052 -0.156 0 0 0
-0.248 0.056 -0.156 8 4 8
-0.248 0.06 -0.156 25 16 25
-0.244 0.06 -0.156 16 8 16
-0.256 0.04 -0.152 0 0 0
-0.256 0.044 -0.152 0 0 0
-0.256 0.048 -0.152 25 16 16
-0.252 0.052 -0.152 25 16 16
-0.248 0.056 -0.152 25 16 16
-0.248 0.06 -0.152 33 20 16
-0.244 0.06 -0.152 25 20 25
-0.256 0.044 -0.148 8 8 8
-0.252 0.048 -0.148 49 36 25
-0.248 0.052 -0.148 66 36 25
-0.248 0.056 -0.148 82 53 33
-0.244 0.056 -0.148 66 40 25
-0.248 0.06 -0.148 90 57 33
-0.244 0.06 -0.148 66 36 25
-0.256 0.044 -0.144 58 40 33
-0.248 0.048 -0.144 66 45 33
-0.248 0.052 -0.144 66 49 33
-0.248 0.056 -0.144 74 49 33
-0.252 0.06 -0.144 41 28 25
-0.248 0.06 -0.144 82 49 33
-0.256 0.04 -0.14 82 49 25
-0.252 0.044 -0.14 66 40 33
-0.248 0.048 -0.14 66 45 33
-0.248 0.052 -0.14 82 53 16
-0.248 0.056 -0.14 41 32 33
-0.252 0.06 -0.14 0 12 8
-0.248 0.06 -0.14 0 16 16
-0.256 0.04 -0.136 99 57 8
-0.252 0.044 -0.136 49 32 16
-0.248 0.048 -0.136 49 36 16
-0.248 0.052 -0.136 99 61 8
-0.248 0.056 -0.136 58 36 8
-0.252 0.06 -0.136 33 32 25
-0.256 0.04 -0.132 115 61 8
-0.252 0.044 -0.132 74 40 8
-0.248 0.044 -0.132 41 24 8
-0.248 0.048 -0.132 74 45 8
-0.248 0.052 -0.132 115 65 8
-0.248 0.056 -0.132 90 57 25
-0.252 0.06 -0.132 49 40 41
-0.264 0.032 -0.128 0 4 8
-0.26 0.036 -0.128 41 24 8
-0.264 0.032 -0.124 16 12 16
-0.26 0.036 -0.124 41 28 16
-0.26 0.032 -0.12 74 40 16
-0.26 0.032 -0.116 165 113 33
-0.26 0.032 -0.112 181 130 33
-0.264 0.032 -0.108 148 85 16
-0.26 0.032 -0.108 140 77 8
-0.264 0.032 -0.104 148 81 16
-0.26 0.032 -0.104 148 85 16
-0.26 0.036 -0.104 173 109 0
-0.268 0.032 -0.1 156 93 25
-0.264 0.032 -0.1 148 81 16
-0.26 0.036 -0.1 181 117 33
-0.2 0.032 -0.176 33 28 16
-0.196 0.032 -0.176 33 32 33
-0.196 0.036 -0.176 33 32 33
-0.208 0.032 -0.172 0 0 0
-0.204 0.032 -0.172 0 0 0
-0.2 0.032 -0.172 49 28 16
-0.204 0.036 -0.172 41 36 41
-0.2 0.036 -0.172 33 45 33
-0.196 0.036 -0.172 41 32 41
-0.2 0.04 -0.172 132 121 123
-0.196 0.04 -0.172 148 138 140
-0.196 0.044 -0.172 82 69 66
-0.224 0.032 -0.168 107 81 66
-0.22 0.032 -0.168 99 81 66
-0.216 0.032 -0.168 107 77 58
-0.212 0.032 -0.168 90 45 33
-0.208 0.032 -0.168 49 16 8
-0.212 0.036 -0.168 90 69 58
-0.208 0.036 -0.168 82 53 49
-0.204 0.036 -0.168 58 57 49
-0.2 0.036 -0.168 49 53 49
-0.204 0.04 -0.168 90 81 82
-0.2 0.04 -0.168 74 73 74
-0.196 0.04 -0.168 99 101 99
-0.204 0.044 -0.168 99 85 82
-0.2 0.044 -0.168 82 73 66
-0.196 0.044 -0.168 82 77 66
-0.2 0.048 -0.168 90 77 74
-0.196 0.048 -0.168 82 73 74
-0.2 0.052 -0.168 99 77 82
-0.196 0.052 -0.168 90 77 74
-0.196 0.056 -0.168 99 85 82
-0.196 0.06 -0.168 107 97 82
-0.224 0.036 -0.164 90 69 58
-0.22 0.036 -0.164 99 77 66
-0.216 0.036 -0.164 82 65 49
-0.212 0.036 -0.164 82 69 49
-0.208 0.036 -0.164 90 69 58
-0.224 0.04 -0.164 33 28 25
-0.22 0.04 -0.164 82 73 58
-0.216 0.04 -0.164 90 73 74
-0.212 0.04 -0.164 90 73 74
-0.208 0.04 -0.164 90 69 66
-0.204 0.04 -0.164 90 85 82
-0.212 0.044 -0.164 197 190 197
-0.208 0.044 -0.164 140 130 132
-0.204 0.044 -0.164 107 85 82
-0.2 0.044 -0.164 99 89 82
-0.212 0.048 -0.164 123 117 115
-0.208 0.048 -0.164 107 97 99
-0.204 0.048 -0.164 115 97 90
-0.2 0.048 -0.164 107 97 90
-0.208 0.052 -0.164 107 93 90
-0.204 0.052 -0.164 107 97 90
-0.2 0.052 -0.164 107 97 90
-0.196 0.052 -0.164 90 81 82
-0.208 0.056 -0.164 107 101 90
-0.204 0.056 -0.164 99 89 82
-0.2 0.056 -0.164 99 85 82
-0.196 0.056 -0.164 99 89 82
-0.204 0.06 -0.164 99 89 90
-0.2 0.06 -0.164 107 89 82
-0.196 0.06 -0.164 123 101 107
-0.268 0.032 -0.096 222 174 41
-0.264 0.032 -0.096 197 134 33
-0.264 0.036 -0.096 222 174 41
-0.26 0.036 -0.096 222 154 33
-0.26 0.04 -0.096 230 178 25
-0.26 0.044 -0.096 206 150 8
-0.272 0.032 -0.092 230 170 25
-0.268 0.032 -0.092 239 186 49
-0.268 0.036 -0.092 239 190 41
-0.264 0.036 -0.092 239 190 41
-0.264 0.04 -0.092 247 194 41
-0.26 0.04 -0.092 230 186 25
-0.264 0.044 -0.092 206 150 25
-0.26 0.044 -0.092 197 125 8
-0.26 0.048 -0.092 181 105 16
-0.26 0.052 -0.092 197 138 8
-0.284 0.032 -0.088 222 174 58
-0.28 0.032 -0.088 230 174 33
-0.276 0.032 -0.088 230 178 33
-0.272 0.032 -0.088 230 174 25
-0.272 0.036 -0.088 239 194 66
-0.268 0.036 -0.088 239 194 66
-0.268 0.04 -0.088 239 198 74
-0.264 0.04 -0.088 247 198 66
-0.268 0.044 -0.088 230 186 49
-0.264 0.044 -0.088 222 170 58
-0.26 0.044 -0.088 206 146 33
-0.264 0.048 -0.088 189 113 16
-0.26 0.048 -0.088 181 105 16
-0.26 0.052 -0.088 206 142 16
-0.26 0.056 -0.088 222 166 25
-0.26 0.06 -0.088 230 182 16
-0.284 0.036 -0.084 255 215 156
-0.28 0.036 -0.084 247 198 90
-0.272 0.036 -0.084 247 194 74
-0.28 0.04 -0.084 230 170 41
-0.276 0.04 -0.084 230 174 49
-0.272 0.04 -0.084 230 186 49
-0.268 0.04 -0.084 239 186 49
-0.272 0.044 -0.084 239 186 49
-0.268 0.044 -0.084 239 182 49
-0.272 0.048 -0.084 222 174 49
-0.268 0.048 -0.084 239 182 49
-0.264 0.048 -0.084 230 178 58
-0.268 0.052 -0.084 239 186 25
-0.264 0.052 -0.084 239 182 25
-0.26 0.052 -0.084 239 182 25
-0.264 0.056 -0.084 239 186 25
-0.26 0.056 -0.084 239 186 25
-0.264 0.06 -0.084 230 174 16
-0.26 0.06 -0.084 222 174 16
-0.284 0.04 -0.08 230 174 41
-0.288 0.044 -0.08 247 190 58
-0.284 0.044 -0.08 247 194 66
-0.28 0.044 -0.08 247 190 58
-0.276 0.044 -0.08 247 194 49
-0.288 0.048 -0.08 189 142 33
-0.28 0.048 -0.08 230 186 49
-0.276 0.048 -0.08 230 186 58
-0.272 0.048 -0.08 230 182 49
-0.276 0.052 -0.08 239 182 41
-0.272 0.052 -0.08 239 182 33
-0.268 0.052 -0.08 239 182 33
-0.272 0.056 -0.08 239 190 58
-0.268 0.056 -0.08 239 190 49
-0.264 0.056 -0.08 239 186 41
-0.272 0.06 -0.08 239 186 25
-0.268 0.06 -0.08 239 194 49
-0.264 0.06 -0.08 230 182 25
-0.224 0.064 -0.16 16 8 8
-0.22 0.064 -0.16 0 0 0
-0.216 0.064 -0.16 0 0 0
-0.212 0.064 -0.16 8 4 8
-0.208 0.064 -0.16 25 24 25
-0.224 0.068 -0.16 16 8 8
-0.22 0.068 -0.16 0 0 0
-0.216 0.068 -0.16 25 16 16
-0.212 0.068 -0.16 66 45 25
-0.208 0.068 -0.16 8 4 0
-0.204 0.068 -0.16 74 73 58
-0.22 0.072 -0.16 99 105 99
-0.216 0.072 -0.16 123 97 66
-0.212 0.072 -0.16 115 109 99
-0.208 0.072 -0.16 115 125 123
-0.22 0.076 -0.16 181 182 181
-0.216 0.076 -0.16 181 182 189
-0.212 0.076 -0.16 189 190 189
-0.224 0.08 -0.16 165 166 165
-0.224 0.072 -0.156 148 121 107
-0.22 0.072 -0.156 148 158 148
-0.256 0.032 -0.172 0 4 8
-0.252 0.032 -0.172 0 4 8
-0.24 0.032 -0.168 41 40 33
-0.236 0.032 -0.168 74 57 58
-0.232 0.032 -0.168 99 81 74
-0.228 0.032 -0.168 107 81 66
-0.256 0.036 -0.168 16 8 8
-0.248 0.036 -0.168 41 16 8
-0.244 0.036 -0.168 66 32 25
-0.24 0.036 -0.168 99 77 66
-0.244 0.04 -0.168 0 0 0
-0.256 0.036 -0.164 0 0 0
-0.252 0.036 -0.164 0 0 0
-0.228 0.036 -0.164 49 45 41
-0.252 0.04 -0.164 0 0 0
-0.248 0.04 -0.164 0 4 8
-0.244 0.04 -0.164 0 0 0
-0.232 0.04 -0.164 33 32 33
-0.228 0.04 -0.164 58 45 41
-0.252 0.044 -0.164 0 0 0
-0.248 0.044 -0.164 0 0 0
-0.244 0.044 -0.164 0 0 0
-0.232 0.044 -0.164 33 16 25
-0.228 0.044 -0.164 74 61 49
-0.248 0.048 -0.164 0 0 0
-0.244 0.048 -0.164 0 0 0
-0.24 0.048 -0.164 0 0 0
-0.236 0.048 -0.164 0 0 0
-0.232 0.048 -0.164 41 36 41
-0.248 0.052 -0.164 0 0 0
-0.244 0.052 -0.164 0 0 0
-0.24 0.052 -0.164 0 0 0
-0.232 0.052 -0.164 33 36 33
-0.248 0.056 -0.164 0 0 0
-0.244 0.056 -0.164 0 0 0
-0.24 0.056 -0.164 0 4 0
-0.236 0.056 -0.164 0 0 0
-0.232 0.056 -0.164 58 53 58
-0.244 0.06 -0.164 0 0 0
-0.24 0.06 -0.164 0 0 0
-0.236 0.06 -0.164 0 0 0
-0.196 0.024 -0.18 99 93 99
-0.212 0.024 -0.176 58 49 49
-0.208 0.024 -0.176 49 45 41
-0.204 0.024 -0.176 66 57 49
-0.2 0.024 -0.176 99 89 82
-0.196 0.024 -0.176 107 93 90
-0.208 0.028 -0.176 0 0 0
-0.204 0.028 -0.176 41 24 16
-0.2 0.028 -0.176 49 45 33
-0.196 0.028 -0.176 58 57 49
-0.224 0.024 -0.172 132 109 99
-0.22 0.024 -0.172 123 117 107
-0.216 0.024 -0.172 107 89 90
-0.212 0.024 -0.172 74 65 66
-0.208 0.024 -0.172 58 61 49
-0.216 0.028 -0.172 58 24 16
-0.212 0.028 -0.172 8 4 8
-0.208 0.028 -0.172 0 0 0
-0.204 0.028 -0.172 0 0 0
-0.224 0.028 -0.168 132 105 99
-0.22 0.028 -0.168 123 105 90
-0.216 0.028 -0.168 115 89 82
-0.212 0.028 -0.168 74 40 33
-0.232 0.064 -0.16 66 45 25
-0.228 0.064 -0.16 74 40 25
-0.228 0.068 -0.16 90 45 25
-0.244 0.08 -0.16 206 178 165
-0.24 0.08 -0.16 181 158 140
-0.244 0.064 -0.156 49 24 8
-0.24 0.064 -0.156 41 24 16
-0.236 0.064 -0.156 49 28 16
-0.232 0.064 -0.156 66 40 16
-0.228 0.064 -0.156 74 40 25
-0.24 0.068 -0.156 82 40 25
-0.236 0.068 -0.156 90 49 41
-0.232 0.068 -0.156 82 49 33
-0.228 0.068 -0.156 82 49 25
-0.24 0.072 -0.156 107 61 41
-0.236 0.072 -0.156 107 69 33
-0.232 0.072 -0.156 123 65 33
-0.228 0.072 -0.156 115 57 33
-0.24 0.076 -0.156 214 134 66
-0.236 0.076 -0.156 189 125 82
-0.232 0.076 -0.156 173 125 99
-0.228 0.076 -0.156 173 150 140
-0.244 0.08 -0.156 206 178 165
-0.24 0.08 -0.156 197 178 165
-0.252 0.084 -0.156 99 130 132
-0.248 0.084 -0.156 156 138 123
-0.244 0.064 -0.152 66 32 16
-0.24 0.064 -0.152 66 32 8
-0.244 0.068 -0.152 82 49 33
-0.24 0.068 -0.152 66 40 25
-0.236 0.068 -0.152 66 40 25
-0.244 0.072 -0.152 82 49 25
-0.24 0.072 -0.152 74 45 16
-0.236 0.072 -0.152 115 69 41
-0.244 0.076 -0.152 107 73 49
-0.24 0.076 -0.152 140 113 90
-0.248 0.08 -0.152 74 61 58
-0.252 0.084 -0.152 8 45 58
-0.256 0.088 -0.152 25 20 25
-0.248 0.064 -0.148 74 49 33
-0.244 0.064 -0.148 74 40 33
-0.248 0.068 -0.148 82 49 33
-0.244 0.068 -0.148 82 45 33
-0.24 0.068 -0.148 82 49 33
-0.248 0.072 -0.148 82 49 33
-0.244 0.072 -0.148 82 49 33
-0.248 0.076 -0.148 90 57 41
-0.244 0.076 -0.148 99 65 33
-0.252 0.08 -0.148 0 0 0
-0.248 0.08 -0.148 33 20 16
-0.256 0.084 -0.148 0 0 0
-0.252 0.084 -0.148 0 0 0
-0.252 0.064 -0.144 74 53 41
-0.248 0.064 -0.144 99 57 41
-0.252 0.068 -0.144 90 57 41
-0.248 0.068 -0.144 99 61 41
-0.252 0.072 -0.144 90 61 41
-0.248 0.072 -0.144 82 57 33
-0.252 0.076 -0.144 58 45 33
-0.248 0.076 -0.144 58 36 25
-0.256 0.08 -0.144 41 28 25
-0.252 0.08 -0.144 25 20 16
-0.248 0.08 -0.144 0 0 0
-0.256 0.084 -0.144 8 12 8
-0.252 0.064 -0.14 33 24 16
-0.256 0.068 -0.14 66 49 33
-0.252 0.068 -0.14 74 49 33
-0.256 0.072 -0.14 82 53 41
-0.252 0.072 -0.14 90 57 41
-0.256 0.076 -0.14 74 49 33
-0.252 0.076 -0.14 82 57 33
-0.256 0.08 -0.14 74 53 41
-0.256 0.064 -0.136 41 45 41
-0.252 0.064 -0.136 49 36 33
-0.256 0.068 -0.136 41 40 41
-0.252 0.068 -0.136 58 49 41
-0.256 0.072 -0.136 33 36 33
-0.256 0.076 -0.136 49 45 33
-0.256 0.08 -0.136 49 40 33
-0.256 0.064 -0.132 41 45 41
-0.256 0.068 -0.132 49 45 41
-0.256 0.072 -0.132 33 28 25
-0.256 0.076 -0.132 25 32 25
-0.26 0.088 -0.156 25 20 25
-0.264 0.088 -0.148 8 8 8
-0.26 0.088 -0.148 0 4 8
-0.264 0.088 -0.144 0 0 0
-0.26 0.08 -0.14 66 53 41
-0.26 0.084 -0.14 41 32 25
-0.268 0.088 -0.14 41 36 41
-0.26 0.076 -0.136 25 32 25
-0.26 0.08 -0.136 33 40 41
-0.264 0.084 -0.136 49 45 41
-0.26 0.084 -0.136 33 32 33
-0.268 0.088 -0.136 58 61 58
-0.26 0.068 -0.132 49 45 41
-0.26 0.072 -0.132 41 36 33
-0.26 0.076 -0.132 33 28 25
-0.26 0.08 -0.132 33 28 33
-0.264 0.088 -0.132 41 45 41
-0.3 0.072 -0.084 82 28 0
-0.292 0.088 -0.084 230 178 16
-0.292 0.068 -0.08 165 109 25
-0.272 0.036 -0.164 0 0 8
-0.26 0.036 -0.164 0 0 0
-0.256 0.04 -0.096 239 174 25
-0.256 0.044 -0.096 206 138 8
-0.256 0.048 -0.096 197 121 0
-0.252 0.048 -0.096 206 125 8
-0.256 0.052 -0.096 222 158 8
-0.252 0.052 -0.096 230 178 16
-0.252 0.056 -0.096 247 194 33
-0.248 0.056 -0.096 239 190 25
-0.252 0.06 -0.096 230 174 16
-0.248 0.06 -0.096 222 178 16
-0.256 0.048 -0.092 181 105 8
-0.256 0.052 -0.092 197 138 8
-0.252 0.052 -0.092 206 146 8
-0.256 0.056 -0.092 206 146 8
-0.252 0.056 -0.092 206 150 8
-0.256 0.06 -0.092 222 166 16
-0.252 0.06 -0.092 222 166 16
-0.256 0.052 -0.088 214 146 25
-0.256 0.056 -0.088 230 170 16
-0.256 0.06 -0.088 222 178 16
-0.224 0.116 -0.188 41 49 49
-0.22 0.116 -0.188 33 49 58
-0.216 0.116 -0.188 33 57 74
-0.212 0.116 -0.188 33 57 82
-0.208 0.116 -0.188 41 49 58
-0.204 0.116 -0.188 49 49 49
-0.224 0.12 -0.188 49 49 49
-0.22 0.12 -0.188 41 45 41
-0.216 0.12 -0.188 41 45 41
-0.212 0.12 -0.188 41 45 41
-0.204 0.12 -0.188 49 49 41
-0.224 0.124 -0.188 49 49 49
-0.22 0.124 -0.188 41 45 41
-0.216 0.124 -0.188 41 45 41
-0.212 0.124 -0.188 49 49 49
-0.204 0.124 -0.188 49 45 49
-0.196 0.108 -0.184 49 49 49
-0.224 0.112 -0.184 33 40 49
-0.216 0.112 -0.184 16 69 107
-0.212 0.112 -0.184 16 89 156
-0.196 0.112 -0.184 49 49 49
-0.196 0.116 -0.184 49 49 49
-0.196 0.12 -0.184 33 40 33
-0.2 0.104 -0.18 8 101 181
-0.196 0.104 -0.18 58 89 115
-0.224 0.108 -0.18 16 85 115
-0.208 0.108 -0.18 8 125 189
-0.204 0.108 -0.18 99 162 206
-0.216 0.096 -0.176 16 65 140
-0.204 0.096 -0.176 132 154 197
-0.2 0.096 -0.176 0 65 165
-0.196 0.096 -0.176 0 105 181
-0.216 0.1 -0.176 16 77 156
-0.204 0.1 -0.176 140 166 197
-0.2 0.1 -0.176 16 89 181
-0.196 0.1 -0.176 0 117 189
-0.216 0.104 -0.176 8 125 181
-0.208 0.104 -0.176 66 158 197
-0.204 0.104 -0.176 82 166 214
-0.208 0.096 -0.172 8 65 165
-0.204 0.096 -0.172 8 65 156
-0.208 0.1 -0.172 0 125 197
-0.204 0.1 -0.172 74 134 181
-0.192 0.032 -0.18 90 81 74
-0.188 0.032 -0.18 82 77 66
-0.188 0.036 -0.18 90 81 82
-0.188 0.04 -0.18 99 85 82
-0.192 0.032 -0.176 82 81 74
-0.188 0.032 -0.176 82 77 74
-0.192 0.036 -0.176 90 81 82
-0.188 0.036 -0.176 90 77 74
-0.192 0.04 -0.176 74 73 74
-0.188 0.04 -0.176 90 77 74
-0.184 0.04 -0.176 99 77 74
-0.188 0.044 -0.176 99 81 82
-0.184 0.044 -0.176 99 85 82
-0.188 0.048 -0.176 99 85 82
-0.184 0.048 -0.176 99 85 74
-0.184 0.052 -0.176 107 89 82
-0.184 0.056 -0.176 99 89 66
-0.184 0.06 -0.176 140 125 115
-0.192 0.036 -0.172 58 53 58
-0.192 0.04 -0.172 115 97 99
-0.188 0.04 -0.172 82 73 74
-0.192 0.044 -0.172 82 65 66
-0.188 0.044 -0.172 82 69 66
-0.192 0.048 -0.172 99 81 82
-0.188 0.048 -0.172 90 77 74
-0.184 0.048 -0.172 99 81 74
-0.192 0.052 -0.172 90 77 74
-0.188 0.052 -0.172 90 81 74
-0.184 0.052 -0.172 90 81 74
-0.18 0.052 -0.172 115 93 90
-0.192 0.056 -0.172 99 85 74
-0.188 0.056 -0.172 99 89 82
-0.184 0.056 -0.172 115 97 90
-0.18 0.056 -0.172 99 89 66
-0.192 0.06 -0.172 115 101 90
-0.188 0.06 -0.172 115 101 90
-0.184 0.06 -0.172 132 105 107
-0.18 0.06 -0.172 140 134 115
-0.192 0.044 -0.168 82 69 66
-0.192 0.048 -0.168 82 77 66
-0.192 0.052 -0.168 90 77 74
-0.192 0.056 -0.168 107 89 90
-0.192 0.06 -0.168 115 97 90
-0.212 0.128 -0.192 49 45 49
-0.224 0.128 -0.188 41 45 41
-0.22 0.128 -0.188 41 45 41
-0.216 0.128 -0.188 49 49 41
-0.212 0.128 -0.188 49 49 49
-0.208 0.128 -0.188 41 49 41
-0.204 0.128 -0.188 58 49 49
-0.22 0.132 -0.188 41 45 41
-0.216 0.132 -0.188 41 49 41
-0.212 0.132 -0.188 49 49 49
-0.208 0.132 -0.188 41 45 41
-0.224 0.128 -0.184 49 45 41
-0.22 0.128 -0.184 41 45 41
-0.224 0.132 -0.184 41 40 41
-0.22 0.132 -0.184 41 45 41
-0.216 0.132 -0.184 49 49 41
-0.224 0.136 -0.184 41 45 41
-0.26 0.084 -0.128 33 32 33
-0.264 0.088 -0.128 41 40 41
-0.26 0.088 -0.128 41 36 33
-0.26 0.092 -0.124 58 49 41
-0.284 0.092 -0.092 140 117 41
-0.264 0.092 -0.092 165 130 33
-0.26 0.092 -0.092 214 170 25
-0.26 0.064 -0.088 222 166 16
-0.26 0.068 -0.088 222 162 8
-0.26 0.072 -0.088 214 158 8
-0.264 0.088 -0.088 222 178 25
-0.26 0.088 -0.088 173 130 25
-0.264 0.064 -0.084 222 174 25
-0.26 0.064 -0.084 222 174 25
-0.264 0.068 -0.084 214 166 16
-0.26 0.068 -0.084 214 166 25
-0.264 0.072 -0.084 206 154 16
-0.26 0.072 -0.084 206 154 16
-0.264 0.076 -0.084 222 174 25
-0.26 0.076 -0.084 214 170 25
-0.264 0.08 -0.084 206 158 8
-0.26 0.08 -0.084 197 142 8
-0.272 0.084 -0.084 148 109 25
-0.268 0.084 -0.084 140 97 16
-0.264 0.084 -0.084 74 49 16
-0.26 0.084 -0.084 148 117 33
-0.288 0.088 -0.084 230 178 16
-0.28 0.088 -0.084 165 101 25
-0.268 0.064 -0.08 230 182 49
-0.264 0.064 -0.08 222 174 25
-0.268 0.068 -0.08 222 174 25
-0.264 0.068 -0.08 214 170 16
-0.268 0.072 -0.08 214 158 25
-0.264 0.072 -0.08 206 154 16
-0.272 0.076 -0.08 239 178 49
-0.268 0.076 -0.08 230 178 49
-0.264 0.076 -0.08 230 178 49
-0.284 0.08 -0.08 90 65 25
-0.28 0.08 -0.08 239 194 58
-0.276 0.08 -0.08 239 194 66
-0.284 0.064 -0.076 239 190 41
-0.276 0.068 -0.076 222 170 74
-0.272 0.068 -0.076 222 174 49
-0.28 0.072 -0.076 230 178 25
-0.272 0.072 -0.076 222 174 25
-0.252 0.064 -0.096 230 186 8
-0.248 0.064 -0.096 230 182 8
-0.252 0.068 -0.096 222 170 8
-0.248 0.068 -0.096 214 162 16
-0.252 0.072 -0.096 206 154 16
-0.248 0.072 -0.096 197 134 8
-0.252 0.076 -0.096 181 117 8
-0.248 0.076 -0.096 165 93 0
-0.248 0.08 -0.096 206 142 25
-0.252 0.084 -0.096 239 186 16
-0.248 0.084 -0.096 230 186 16
-0.252 0.088 -0.096 206 142 8
-0.248 0.088 -0.096 206 146 16
-0.256 0.092 -0.096 181 121 16
-0.256 0.064 -0.092 230 174 16
-0.252 0.064 -0.092 230 178 25
-0.256 0.068 -0.092 239 178 16
-0.252 0.068 -0.092 239 190 16
-0.256 0.072 -0.092 230 178 16
-0.252 0.072 -0.092 230 182 16
-0.252 0.076 -0.092 214 150 16
-0.248 0.076 -0.092 181 113 8
-0.252 0.08 -0.092 222 154 33
-0.248 0.08 -0.092 206 146 33
-0.252 0.084 -0.092 239 186 41
-0.248 0.084 -0.092 230 178 16
-0.252 0.088 -0.092 222 170 25
-0.256 0.064 -0.088 222 166 16
-0.256 0.068 -0.088 222 166 8
-0.256 0.072 -0.088 214 158 8
-0.256 0.076 -0.088 214 158 8
-0.252 0.076 -0.088 214 158 8
-0.256 0.08 -0.088 214 158 16
-0.252 0.08 -0.088 230 174 25
-0.256 0.084 -0.088 222 178 16
-0.252 0.084 -0.088 214 166 25
-0.256 0.088 -0.088 132 93 25
-0.256 0.076 -0.084 222 166 16
-0.256 0.084 -0.084 173 142 41
-0.192 0.024 -0.184 82 69 66
-0.192 0.024 -0.18 99 101 99
-0.188 0.024 -0.18 115 109 107
-0.192 0.028 -0.18 107 97 99
-0.188 0.028 -0.18 123 121 107
-0.192 0.028 -0.176 82 77 74
-0.276 0.028 -0.096 247 198 74
-0.272 0.028 -0.096 239 186 49
-0.288 0.028 -0.092 222 174 49
-0.284 0.028 -0.092 247 190 58
-0.28 0.028 -0.092 230 182 49
-0.276 0.028 -0.092 222 174 49
-0.256 0.064 -0.128 8 8 8
-0.256 0.068 -0.128 8 4 0
-0.256 0.072 -0.128 49 40 41
-0.256 0.076 -0.128 33 32 33
-0.252 0.064 -0.124 16 16 8
-0.256 0.068 -0.124 0 0 0
-0.252 0.068 -0.124 0 0 0
-0.256 0.072 -0.124 0 0 0
-0.252 0.072 -0.124 8 4 8
-0.256 0.076 -0.124 16 12 16
-0.252 0.076 -0.124 25 20 25
-0.256 0.08 -0.124 33 36 33
-0.256 0.084 -0.124 33 36 33
-0.256 0.088 -0.124 41 40 41
-0.256 0.092 -0.124 58 49 49
-0.252 0.08 -0.12 25 24 25
-0.248 0.08 -0.12 33 36 33
-0.252 0.084 -0.12 33 32 25
-0.252 0.088 -0.12 49 53 49
-0.256 0.092 -0.12 82 53 25
-0.248 0.064 -0.116 148 93 8
-0.248 0.068 -0.116 123 69 8
-0.248 0.072 -0.116 99 61 16
-0.248 0.076 -0.116 82 53 16
-0.248 0.08 -0.116 16 8 8
-0.248 0.084 -0.116 49 40 33
-0.248 0.088 -0.116 66 53 41
-0.252 0.092 -0.116 123 73 16
-0.248 0.092 -0.116 123 69 16
-0.244 0.064 -0.112 156 101 0
-0.244 0.068 -0.112 148 81 0
-0.244 0.072 -0.112 132 73 8
-0.244 0.076 -0.112 107 61 16
-0.244 0.08 -0.112 33 20 16
-0.244 0.084 -0.112 49 40 25
-0.244 0.088 -0.112 107 65 25
-0.248 0.092 -0.112 156 105 8
-0.244 0.064 -0.108 189 138 8
-0.244 0.068 -0.108 197 142 8
-0.244 0.072 -0.108 214 154 16
-0.244 0.076 -0.108 206 158 41
-0.244 0.08 -0.108 132 81 16
-0.244 0.084 -0.108 123 69 16
-0.248 0.088 -0.108 156 101 16
-0.244 0.088 -0.108 156 105 16
-0.248 0.092 -0.108 230 190 16
-0.244 0.092 -0.108 206 162 16
-0.248 0.064 -0.104 222 166 16
-0.244 0.064 -0.104 222 170 16
-0.248 0.068 -0.104 222 170 8
-0.244 0.068 -0.104 230 178 16
-0.248 0.072 -0.104 222 170 25
-0.244 0.072 -0.104 239 182 41
-0.248 0.076 -0.104 222 182 25
-0.244 0.076 -0.104 230 186 33
-0.248 0.08 -0.104 189 134 8
-0.244 0.08 -0.104 165 101 0
-0.248 0.084 -0.104 165 97 8
-0.244 0.084 -0.104 140 77 8
-0.248 0.088 -0.104 156 89 16
-0.244 0.088 -0.104 173 125 25
-0.248 0.092 -0.104 247 198 58
-0.248 0.064 -0.1 222 174 8
-0.244 0.064 -0.1 222 174 8
-0.248 0.068 -0.1 206 154 8
-0.244 0.068 -0.1 197 142 0
-0.248 0.072 -0.1 189 134 8
-0.244 0.072 -0.1 197 130 0
-0.248 0.076 -0.1 165 105 0
-0.244 0.076 -0.1 165 101 0
-0.248 0.08 -0.1 181 117 16
-0.244 0.08 -0.1 206 150 25
-0.248 0.084 -0.1 230 178 25
-0.244 0.084 -0.1 197 142 16
-0.248 0.088 -0.1 214 154 16
-0.248 0.092 -0.1 222 166 25
-0.232 0.12 -0.188 41 40 33
-0.228 0.12 -0.188 41 45 41
-0.232 0.124 -0.188 41 45 41
-0.228 0.124 -0.188 41 45 41
-0.248 0.096 -0.184 49 45 49
-0.244 0.096 -0.184 49 49 49
-0.24 0.096 -0.184 49 49 49
-0.236 0.096 -0.184 49 49 49
-0.248 0.1 -0.184 41 45 41
-0.244 0.1 -0.184 49 49 49
-0.24 0.1 -0.184 49 45 49
-0.236 0.1 -0.184 41 45 41
-0.248 0.104 -0.184 41 45 41
-0.244 0.104 -0.184 41 45 41
-0.24 0.104 -0.184 49 49 49
-0.236 0.104 -0.184 49 49 49
-0.244 0.108 -0.184 49 45 41
-0.24 0.108 -0.184 49 45 41
-0.236 0.108 -0.184 49 45 41
-0.244 0.112 -0.184 41 45 41
-0.24 0.112 -0.184 49 45 49
-0.236 0.112 -0.184 41 45 41
-0.232 0.112 -0.184 41 45 41
-0.228 0.112 -0.184 41 53 58
-0.24 0.116 -0.184 49 45 49
-0.236 0.116 -0.184 49 49 41
-0.244 0.12 -0.184 41 45 41
-0.24 0.12 -0.184 41 45 41
-0.236 0.12 -0.184 41 45 41
-0.232 0.12 -0.184 41 45 41
-0.244 0.124 -0.184 41 45 41
-0.24 0.124 -0.184 41 45 41
-0.236 0.124 -0.184 49 49 49
-0.232 0.124 -0.184 41 45 41
-0.228 0.124 -0.184 41 45 41
-0.228 0.096 -0.18 41 45 41
-0.228 0.104 -0.18 33 49 49
-0.24 0.124 -0.18 49 49 41
-0.244 0.092 -0.184 41 45 41
-0.24 0.092 -0.184 49 45 49
-0.236 0.092 -0.184 58 49 49
-0.228 0.088 -0.18 49 49 49
-0.248 0.092 -0.18 49 49 49
-0.244 0.088 -0.176 49 57 49
-0.24 0.088 -0.176 49 49 49
-0.244 0.088 -0.172 41 53 49
-0.24 0.088 -0.172 58 61 58
-0.24 0.084 -0.168 58 57 58
-0.236 0.084 -0.168 66 77 74
-0.228 0.084 -0.168 140 150 140
-0.228 0.084 -0.164 140 146 140
-0.26 0.028 -0.176 74 73 74
-0.268 0.096 -0.128 82 57 25
-0.264 0.096 -0.124 115 69 8
-0.26 0.096 -0.12 115 69 8
-0.268 0.1 -0.12 189 138 25
-0.272 0.1 -0.116 222 174 16
-0.268 0.096 -0.104 214 170 58
-0.284 0.1 -0.104 173 109 25
-0.216 0.044 -0.16 107 109 107
-0.212 0.044 -0.16 140 121 123
-0.22 0.048 -0.16 123 125 115
-0.216 0.048 -0.16 115 109 99
-0.212 0.048 -0.16 107 97 90
-0.208 0.048 -0.16 115 109 99
-0.224 0.052 -0.16 148 138 140
-0.22 0.052 -0.16 140 130 132
-0.216 0.052 -0.16 123 109 107
-0.212 0.052 -0.16 123 105 107
-0.208 0.052 -0.16 115 105 107
-0.204 0.052 -0.16 107 97 90
-0.22 0.056 -0.16 115 121 115
-0.216 0.056 -0.16 74 81 74
-0.212 0.056 -0.16 107 97 99
-0.208 0.056 -0.16 107 97 90
-0.204 0.056 -0.16 115 105 90
-0.224 0.06 -0.16 8 4 8
-0.22 0.06 -0.16 0 0 0
-0.216 0.06 -0.16 0 0 0
-0.212 0.06 -0.16 41 36 33
-0.204 0.06 -0.16 99 93 82
-0.192 0.104 -0.184 41 49 49
-0.192 0.108 -0.184 41 53 49
-0.188 0.108 -0.184 41 53 49
-0.192 0.112 -0.184 25 28 25
-0.192 0.116 -0.184 25 16 25
-0.192 0.12 -0.184 8 12 8
-0.192 0.124 -0.184 0 0 0
-0.192 0.096 -0.18 49 49 49
-0.188 0.096 -0.18 49 49 49
-0.192 0.1 -0.18 49 45 41
-0.188 0.1 -0.18 49 49 49
-0.192 0.104 -0.18 49 49 49
-0.192 0.096 -0.176 25 85 123
-0.268 0.036 -0.16 0 0 8
-0.26 0.036 -0.16 8 8 8
-0.26 0.04 -0.16 0 0 0
-0.264 0.036 -0.156 0 0 0
-0.26 0.04 -0.156 0 0 0
-0.26 0.044 -0.156 0 0 0
-0.264 0.036 -0.152 8 4 8
-0.26 0.04 -0.152 0 0 0
-0.26 0.044 -0.152 0 0 0
-0.272 0.032 -0.148 66 49 41
-0.264 0.036 -0.148 41 32 25
-0.26 0.04 -0.148 25 12 16
-0.26 0.044 -0.148 33 24 16
-0.272 0.032 -0.144 74 45 33
-0.264 0.036 -0.144 74 49 33
-0.26 0.036 -0.144 74 45 33
-0.26 0.04 -0.144 74 49 33
-0.268 0.032 -0.14 90 57 41
-0.26 0.036 -0.14 74 45 33
-0.268 0.032 -0.136 49 32 8
-0.264 0.032 -0.136 74 49 25
-0.264 0.036 -0.136 25 20 16
-0.26 0.036 -0.136 66 40 25
-0.268 0.032 -0.132 8 8 8
-0.264 0.036 -0.132 16 12 0
-0.26 0.036 -0.132 25 16 8
-0.24 0.128 -0.184 41 45 41
-0.236 0.128 -0.184 41 45 41
-0.232 0.128 -0.184 49 45 41
-0.228 0.128 -0.184 41 45 41
-0.24 0.132 -0.184 41 45 41
-0.236 0.132 -0.184 41 45 41
-0.232 0.132 -0.184 41 45 41
-0.228 0.132 -0.184 41 45 41
-0.232 0.136 -0.184 41 45 41
-0.228 0.136 -0.184 41 45 41
-0.24 0.128 -0.18 41 45 41
-0.24 0.132 -0.18 41 40 41
-0.236 0.132 -0.18 41 45 41
-0.244 0.136 -0.18 49 45 41
-0.24 0.136 -0.18 41 45 41
-0.236 0.136 -0.18 41 45 41
-0.232 0.136 -0.18 49 45 41
-0.24 0.14 -0.18 41 45 41
-0.256 0.04 -0.128 148 97 16
-0.252 0.04 -0.128 123 73 16
-0.252 0.044 -0.128 99 57 8
-0.248 0.044 -0.128 58 32 8
-0.248 0.048 -0.128 99 57 8
-0.248 0.052 -0.128 123 69 8
-0.248 0.056 -0.128 115 69 16
-0.252 0.06 -0.128 66 49 25
-0.256 0.036 -0.124 49 28 16
-0.252 0.04 -0.124 173 113 25
-0.252 0.044 -0.124 156 101 8
-0.248 0.044 -0.124 115 61 0
-0.248 0.048 -0.124 115 65 8
-0.248 0.052 -0.124 132 77 16
-0.248 0.056 -0.124 132 69 8
-0.252 0.06 -0.124 58 36 8
-0.256 0.036 -0.12 90 49 16
-0.252 0.04 -0.12 132 85 8
-0.248 0.044 -0.12 173 121 25
-0.248 0.048 -0.12 123 65 0
-0.248 0.052 -0.12 107 53 0
-0.248 0.056 -0.12 107 57 8
-0.248 0.06 -0.12 82 53 16
-0.256 0.036 -0.116 132 77 16
-0.252 0.036 -0.116 115 61 8
-0.252 0.04 -0.116 140 73 8
-0.248 0.04 -0.116 123 65 8
-0.248 0.044 -0.116 107 53 0
-0.248 0.048 -0.116 132 65 16
-0.244 0.048 -0.116 115 53 0
-0.248 0.052 -0.116 132 69 8
-0.244 0.052 -0.116 132 69 8
-0.248 0.056 -0.116 148 93 25
-0.248 0.06 -0.116 148 93 8
-0.256 0.032 -0.112 197 154 49
-0.256 0.036 -0.112 222 166 25
-0.252 0.036 -0.112 197 138 16
-0.252 0.04 -0.112 189 142 16
-0.248 0.04 -0.112 173 113 16
-0.248 0.044 -0.112 148 81 8
-0.248 0.048 -0.112 181 117 25
-0.244 0.048 -0.112 165 109 25
-0.248 0.052 -0.112 230 190 25
-0.244 0.052 -0.112 230 190 25
-0.248 0.056 -0.112 206 162 16
-0.244 0.056 -0.112 197 138 25
-0.244 0.06 -0.112 189 134 16
-0.256 0.036 -0.108 230 182 49
-0.252 0.036 -0.108 230 186 41
-0.252 0.04 -0.108 222 178 33
-0.248 0.04 -0.108 214 162 25
-0.252 0.044 -0.108 206 154 16
-0.248 0.044 -0.108 189 134 16
-0.248 0.048 -0.108 140 69 0
-0.248 0.052 -0.108 189 125 8
-0.244 0.052 -0.108 214 170 16
-0.248 0.056 -0.108 214 162 16
-0.244 0.056 -0.108 230 182 25
-0.244 0.06 -0.108 222 170 16
-0.256 0.036 -0.104 181 109 0
-0.256 0.04 -0.104 214 158 33
-0.252 0.04 -0.104 239 178 49
-0.252 0.044 -0.104 214 162 33
-0.248 0.044 -0.104 222 166 33
-0.252 0.048 -0.104 156 89 8
-0.248 0.048 -0.104 156 85 8
-0.248 0.052 -0.104 173 113 0
-0.248 0.056 -0.104 181 109 8
-0.244 0.056 -0.104 189 121 0
-0.248 0.06 -0.104 197 125 8
-0.244 0.06 -0.104 197 138 8
-0.256 0.036 -0.1 181 113 16
-0.256 0.04 -0.1 197 142 16
-0.252 0.04 -0.1 214 146 16
-0.256 0.044 -0.1 214 162 8
-0.252 0.044 -0.1 214 162 16
-0.252 0.048 -0.1 148 85 16
-0.248 0.048 -0.1 156 89 8
-0.252 0.052 -0.1 181 121 16
-0.248 0.052 -0.1 173 97 16
-0.252 0.056 -0.1 222 158 25
-0.248 0.056 -0.1 206 154 16
-0.248 0.06 -0.1 230 182 8
-0.196 0.072 -0.176 156 154 148
-0.196 0.076 -0.176 173 174 148
-0.2 0.08 -0.176 165 166 148
-0.196 0.08 -0.176 148 150 132
-0.2 0.084 -0.176 8 49 107
-0.196 0.084 -0.176 25 45 82
-0.216 0.088 -0.176 33 57 90
-0.2 0.088 -0.176 66 105 173
-0.196 0.088 -0.176 0 65 156
-0.216 0.092 -0.176 16 53 107
-0.204 0.092 -0.176 82 113 173
-0.2 0.092 -0.176 8 69 165
-0.196 0.092 -0.176 0 93 173
-0.196 0.068 -0.172 107 113 90
-0.2 0.072 -0.172 132 125 115
-0.196 0.072 -0.172 148 146 132
-0.204 0.076 -0.172 156 146 132
-0.2 0.076 -0.172 173 162 156
-0.196 0.076 -0.172 189 194 165
-0.212 0.08 -0.172 107 105 107
-0.208 0.08 -0.172 49 57 58
-0.204 0.08 -0.172 66 77 82
-0.2 0.08 -0.172 25 45 58
-0.224 0.084 -0.172 123 121 115
-0.216 0.084 -0.172 41 40 41
-0.208 0.084 -0.172 66 93 140
-0.204 0.084 -0.172 82 121 181
-0.2 0.084 -0.172 16 65 156
-0.212 0.088 -0.172 33 57 90
-0.208 0.088 -0.172 99 138 197
-0.204 0.088 -0.172 74 117 181
-0.2 0.088 -0.172 58 93 156
-0.208 0.092 -0.172 66 105 173
-0.204 0.092 -0.172 25 85 173
-0.2 0.092 -0.172 107 138 189
-0.2 0.064 -0.168 115 105 99
-0.196 0.064 -0.168 132 125 107
-0.2 0.068 -0.168 140 130 123
-0.196 0.068 -0.168 132 125 123
-0.204 0.072 -0.168 156 154 148
-0.2 0.072 -0.168 148 146 140
-0.208 0.076 -0.168 173 174 173
-0.204 0.076 -0.168 140 146 140
-0.216 0.08 -0.168 173 170 165
-0.212 0.08 -0.168 148 154 148
-0.224 0.084 -0.168 165 170 173
-0.204 0.064 -0.164 107 97 90
-0.2 0.064 -0.164 115 105 99
-0.196 0.064 -0.164 115 109 99
-0.208 0.068 -0.164 66 57 58
-0.204 0.068 -0.164 107 109 90
-0.2 0.068 -0.164 140 134 132
-0.208 0.072 -0.164 132 138 132
-0.204 0.072 -0.164 165 162 156
-0.212 0.076 -0.164 181 186 189
-0.208 0.076 -0.164 173 178 173
-0.224 0.08 -0.164 181 182 181
-0.22 0.08 -0.164 189 198 197
-0.216 0.08 -0.164 181 190 181
