ply
format ascii 1.0
element vertex 773
property float x
property float y
property float z
property uchar red
property uchar green
property uchar blue
end_header
0 -0.216 0.064 0 0 0
0 -0.224 0.072 0 0 0
0 -0.216 0.072 0 0 0
0 -0.224 0.08 0 0 0
0 -0.216 0.08 8 0 0
0 -0.224 0.088 0 0 0
0 -0.216 0.088 0 0 0
0 -0.224 0.096 16 12 8
0.008 -0.208 0 0 0 0
0.016 -0.208 0 0 0 0
0 -0.2 0 0 0 0
0.008 -0.2 0 0 0 0
0 -0.208 0.008 0 0 0
0.008 -0.208 0.008 0 0 0
0 -0.2 0.008 0 0 0
0.008 -0.2 0.008 0 0 0
0 -0.208 0.016 0 0 0
0.008 -0.208 0.016 0 0 0
0 -0.2 0.016 0 0 0
0.008 -0.2 0.016 0 0 0
0 -0.208 0.024 0 0 0
0.008 -0.208 0.024 0 0 0
0 -0.2 0.024 0 0 0
0.008 -0.216 0.032 0 0 0
0 -0.208 0.032 0 0 0
0.008 -0.208 0.032 0 0 0
0 -0.216 0.04 0 0 0
0.008 -0.216 0.04 0 0 0
0 -0.208 0.04 0 0 0
0.008 -0.208 0.04 0 0 0
0 -0.216 0.048 0 0 0
0.008 -0.216 0.048 0 0 0
0 -0.208 0.048 0 0 0
0.008 -0.224 0.056 0 0 0
0 -0.216 0.056 0 0 0
0 -0.208 0.056 0 0 0
0.008 -0.192 -0.064 0 0 0
0.016 -0.192 -0.064 0 0 0
0.024 -0.192 -0.064 0 0 0
0 -0.184 -0.064 0 0 0
0.008 -0.184 -0.064 0 0 0
0.016 -0.184 -0.064 0 0 0
0 -0.192 -0.056 0 0 0
0.008 -0.192 -0.056 0 0 0
0.016 -0.192 -0.056 0 0 0
0.024 -0.192 -0.056 0 0 0
0 -0.184 -0.056 0 0 0
0.008 -0.184 -0.056 0 0 0
0 -0.192 -0.048 0 0 0
0.008 -0.192 -0.048 0 0 0
0.016 -0.192 -0.048 0 0 0
0 -0.184 -0.048 0 0 0
0 -0.192 -0.04 0 0 0
0.008 -0.192 -0.04 0 0 0
0.016 -0.192 -0.04 0 0 0
0 -0.192 -0.032 0 0 0
0.008 -0.192 -0.032 0 0 0
0.016 -0.192 -0.032 0 0 0
0 -0.192 -0.024 0 0 0
0.008 -0.192 -0.024 0 0 0
0 -0.192 -0.016 0 0 0
0.008 -0.192 -0.016 0 0 0
0 -0.192 -0.008 0 0 0
0.024 -0.2 -0.056 0 0 0
0.016 -0.2 -0.048 0 0 0
0.024 -0.2 -0.048 0 0 0
0.008 -0.2 -0.04 0 0 0
0.016 -0.2 -0.04 0 0 0
0.008 -0.2 -0.032 0 0 0
0.016 -0.2 -0.032 0 0 0
0 -0.2 -0.024 0 0 0
0.008 -0.2 -0.024 0 0 0
0.016 -0.2 -0.024 0 0 0
0 -0.2 -0.016 0 0 0
0.008 -0.2 -0.016 0 0 0
0.016 -0.2 -0.016 0 0 0
0.016 -0.208 -0.008 0 0 0
0 -0.2 -0.008 0 0 0
0.008 -0.2 -0.008 0 0 0
0.016 -0.2 -0.008 0 0 0
0.016 -0.192 -0.088 0 0 0
0.024 -0.192 -0.088 0 0 0
0 -0.184 -0.088 0 0 0
0.008 -0.184 -0.088 0 0 0
0.016 -0.192 -0.08 0 0 0
0.024 -0.192 -0.08 0 0 0
0 -0.184 -0.08 0 0 0
0.008 -0.184 -0.08 0 0 0
0.016 -0.184 -0.08 0 0 0
0.024 -0.184 -0.08 0 0 0
0.008 -0.192 -0.072 0 0 0
0.016 -0.192 -0.072 0 0 0
0.024 -0.192 -0.072 0 0 0
0 -0.184 -0.072 0 0 0
0.008 -0.184 -0.072 0 0 0
0.016 -0.184 -0.072 0 0 0
-0.016 -0.216 0.064 8 0 0
-0.008 -0.216 0.064 0 0 0
-0.032 -0.208 0.064 0 0 0
-0.024 -0.208 0.064 0 0 0
-0.016 -0.208 0.064 8 0 0
-0.008 -0.208 0.064 0 0 0
-0.048 -0.2 0.064 90 65 90
-0.04 -0.2 0.064 0 0 0
-0.032 -0.2 0.064 0 0 0
-0.024 -0.216 0.072 0 0 0
-0.016 -0.216 0.072 8 0 0
-0.008 -0.216 0.072 0 0 0
-0.032 -0.208 0.072 0 0 0
-0.024 -0.208 0.072 0 0 0
-0.016 -0.208 0.072 8 0 0
-0.048 -0.2 0.072 99 73 99
-0.04 -0.2 0.072 0 0 0
-0.032 -0.2 0.072 0 0 0
-0.024 -0.216 0.08 0 0 0
-0.016 -0.216 0.08 8 0 0
-0.008 -0.216 0.08 0 0 0
-0.04 -0.208 0.08 0 0 0
-0.032 -0.208 0.08 0 0 0
-0.024 -0.208 0.08 0 0 0
-0.016 -0.208 0.08 8 0 0
-0.048 -0.2 0.08 0 0 0
-0.04 -0.2 0.08 0 0 0
-0.032 -0.2 0.08 0 0 0
-0.024 -0.216 0.088 0 0 0
-0.016 -0.216 0.088 0 0 0
-0.008 -0.216 0.088 0 0 0
-0.04 -0.208 0.088 0 0 0
-0.032 -0.208 0.088 0 0 0
-0.024 -0.208 0.088 0 0 0
-0.016 -0.208 0.088 8 4 0
-0.008 -0.208 0.088 0 4 0
-0.056 -0.2 0.088 107 121 107
-0.048 -0.2 0.088 0 0 0
-0.04 -0.2 0.088 0 0 0
-0.032 -0.2 0.088 0 0 0
-0.016 -0.216 0.096 16 4 0
-0.008 -0.216 0.096 8 4 0
-0.048 -0.208 0.096 0 0 0
-0.04 -0.208 0.096 0 0 0
-0.032 -0.208 0.096 0 0 0
-0.024 -0.208 0.096 0 0 0
-0.016 -0.208 0.096 16 8 0
-0.064 -0.2 0.096 189 190 189
-0.056 -0.2 0.096 115 117 115
-0.048 -0.2 0.096 0 0 0
-0.04 -0.2 0.096 0 0 0
-0.032 -0.2 0.096 0 0 0
-0.008 -0.224 0.104 16 8 0
-0.024 -0.216 0.104 8 4 0
-0.016 -0.216 0.104 8 8 0
-0.008 -0.216 0.104 8 8 0
-0.048 -0.208 0.104 0 0 0
-0.04 -0.208 0.104 8 4 0
-0.032 -0.208 0.104 8 0 0
-0.024 -0.208 0.104 8 0 0
-0.016 -0.208 0.104 16 8 0
-0.064 -0.2 0.104 82 97 90
-0.056 -0.2 0.104 82 85 82
-0.048 -0.2 0.104 0 0 0
-0.04 -0.2 0.104 8 0 0
-0.008 -0.224 0.112 25 12 8
-0.032 -0.216 0.112 8 4 0
-0.024 -0.216 0.112 8 8 0
-0.016 -0.216 0.112 16 8 8
-0.008 -0.216 0.112 25 16 8
-0.056 -0.208 0.112 0 0 0
-0.048 -0.208 0.112 0 0 0
-0.04 -0.208 0.112 8 0 0
-0.032 -0.208 0.112 8 4 0
-0.024 -0.208 0.112 16 8 0
-0.064 -0.2 0.112 0 0 0
-0.016 -0.2 0 0 0 0
-0.008 -0.2 0 0 0 0
-0.024 -0.2 0.008 0 0 0
-0.016 -0.2 0.008 0 0 0
-0.008 -0.2 0.008 0 0 0
-0.008 -0.208 0.016 0 0 0
-0.024 -0.2 0.016 0 0 0
-0.016 -0.2 0.016 0 0 0
-0.008 -0.2 0.016 0 0 0
-0.008 -0.208 0.024 0 0 0
-0.032 -0.2 0.024 0 0 0
-0.024 -0.2 0.024 0 0 0
-0.016 -0.2 0.024 0 0 0
-0.008 -0.2 0.024 0 0 0
-0.016 -0.208 0.032 0 0 0
-0.008 -0.208 0.032 0 0 0
-0.032 -0.2 0.032 0 0 0
-0.024 -0.2 0.032 0 0 0
-0.016 -0.2 0.032 0 0 0
-0.008 -0.2 0.032 0 0 0
-0.016 -0.208 0.04 0 0 0
-0.008 -0.208 0.04 0 0 0
-0.04 -0.2 0.04 0 0 0
-0.032 -0.2 0.04 0 0 0
-0.024 -0.2 0.04 0 0 0
-0.016 -0.2 0.04 0 0 0
-0.008 -0.216 0.048 0 0 0
-0.024 -0.208 0.048 0 0 0
-0.016 -0.208 0.048 8 0 0
-0.008 -0.208 0.048 0 0 0
-0.04 -0.2 0.048 0 0 0
-0.032 -0.2 0.048 0 0 0
-0.024 -0.2 0.048 0 0 0
-0.016 -0.216 0.056 25 12 8
-0.008 -0.216 0.056 0 0 0
-0.024 -0.208 0.056 0 0 0
-0.016 -0.208 0.056 16 8 8
-0.008 -0.208 0.056 0 0 0
-0.04 -0.2 0.056 0 0 0
-0.032 -0.2 0.056 0 0 0
-0.024 -0.2 0.056 0 0 0
-0.008 -0.2 -0.016 0 0 0
-0.008 -0.2 -0.008 0 0 0
-0.056 -0.192 0.064 206 194 206
-0.048 -0.192 0.064 140 125 140
-0.04 -0.192 0.064 0 0 0
-0.064 -0.184 0.064 197 198 206
-0.056 -0.184 0.064 189 190 189
-0.064 -0.192 0.072 214 194 206
-0.056 -0.192 0.072 214 215 214
-0.048 -0.192 0.072 99 105 99
-0.064 -0.184 0.072 206 206 173
-0.056 -0.184 0.072 197 194 197
-0.064 -0.192 0.08 197 206 173
-0.056 -0.192 0.08 189 178 189
-0.048 -0.192 0.08 99 65 99
-0.064 -0.184 0.08 222 219 222
-0.056 -0.184 0.08 189 198 189
-0.064 -0.192 0.088 206 206 214
-0.056 -0.192 0.088 173 178 173
-0.064 -0.192 0.096 132 121 140
-0.056 -0.192 0.096 82 89 82
-0.064 -0.192 0.104 90 73 90
-0.024 -0.176 -0.096 0 0 0
-0.008 -0.184 -0.088 0 0 0
-0.024 -0.176 -0.088 0 0 0
-0.016 -0.176 -0.088 0 0 0
-0.008 -0.176 -0.088 0 0 0
-0.032 -0.168 -0.088 0 0 0
-0.064 -0.16 -0.088 58 36 49
-0.056 -0.16 -0.088 66 69 66
-0.048 -0.16 -0.088 115 113 115
-0.064 -0.152 -0.088 58 53 49
-0.008 -0.184 -0.08 0 0 0
-0.032 -0.176 -0.08 0 0 0
-0.024 -0.176 -0.08 0 0 0
-0.016 -0.176 -0.08 0 0 0
-0.008 -0.176 -0.08 0 0 0
-0.032 -0.168 -0.08 41 28 41
-0.024 -0.168 -0.08 0 0 0
-0.064 -0.16 -0.08 58 53 49
-0.056 -0.16 -0.08 58 49 49
-0.048 -0.16 -0.08 90 89 90
-0.04 -0.16 -0.08 82 81 82
-0.064 -0.152 -0.08 58 53 49
-0.016 -0.184 -0.072 0 0 0
-0.008 -0.184 -0.072 0 0 0
-0.032 -0.176 -0.072 0 0 0
-0.024 -0.176 -0.072 0 0 0
-0.016 -0.176 -0.072 0 0 0
-0.008 -0.176 -0.072 0 0 0
-0.04 -0.168 -0.072 82 53 74
-0.032 -0.168 -0.072 25 16 25
-0.064 -0.16 -0.072 82 73 66
-0.056 -0.16 -0.072 66 61 49
-0.048 -0.16 -0.072 107 105 107
-0.04 -0.16 -0.072 74 77 74
-0.064 -0.152 -0.072 58 57 49
-0.032 -0.192 0 0 0 0
-0.024 -0.192 0 0 0 0
-0.016 -0.192 0 0 0 0
-0.008 -0.192 0 0 0 0
-0.04 -0.184 0 0 0 0
-0.032 -0.184 0 0 0 0
-0.056 -0.176 0 140 158 140
-0.048 -0.176 0 132 138 132
-0.064 -0.168 0 197 198 197
-0.056 -0.168 0 140 158 140
-0.048 -0.168 0 148 146 148
-0.04 -0.192 0.008 0 0 0
-0.032 -0.192 0.008 0 0 0
-0.024 -0.192 0.008 0 0 0
-0.016 -0.192 0.008 0 0 0
-0.04 -0.184 0.008 0 0 0
-0.032 -0.184 0.008 0 0 0
-0.064 -0.176 0.008 214 210 214
-0.056 -0.176 0.008 206 206 206
-0.048 -0.176 0.008 189 174 189
-0.064 -0.168 0.008 206 206 206
-0.056 -0.168 0.008 206 202 206
-0.04 -0.192 0.016 0 0 0
-0.032 -0.192 0.016 0 0 0
-0.024 -0.192 0.016 0 0 0
-0.016 -0.192 0.016 0 0 0
-0.048 -0.184 0.016 181 170 181
-0.04 -0.184 0.016 0 0 0
-0.064 -0.176 0.016 214 215 214
-0.056 -0.176 0.016 214 210 214
-0.048 -0.176 0.016 165 158 165
-0.064 -0.168 0.016 214 215 214
-0.056 -0.168 0.016 214 210 214
-0.04 -0.192 0.024 0 0 0
-0.032 -0.192 0.024 0 0 0
-0.024 -0.192 0.024 0 0 0
-0.048 -0.184 0.024 189 170 189
-0.04 -0.184 0.024 0 0 0
-0.064 -0.176 0.024 214 215 214
-0.056 -0.176 0.024 214 215 214
-0.048 -0.176 0.024 189 174 189
-0.064 -0.168 0.024 222 219 222
-0.04 -0.192 0.032 0 0 0
-0.032 -0.192 0.032 0 0 0
-0.024 -0.192 0.032 0 0 0
-0.056 -0.184 0.032 189 186 189
-0.048 -0.184 0.032 156 101 156
-0.064 -0.176 0.032 230 227 230
-0.056 -0.176 0.032 189 186 189
-0.048 -0.176 0.032 173 113 173
-0.048 -0.192 0.04 140 117 140
-0.04 -0.192 0.04 0 0 0
-0.032 -0.192 0.04 0 0 0
-0.064 -0.184 0.04 230 227 230
-0.056 -0.184 0.04 165 186 165
-0.048 -0.184 0.04 148 150 148
-0.064 -0.176 0.04 230 227 230
-0.056 -0.176 0.04 222 223 222
-0.048 -0.192 0.048 140 117 148
-0.04 -0.192 0.048 0 0 0
-0.032 -0.192 0.048 0 0 0
-0.064 -0.184 0.048 230 227 230
-0.056 -0.184 0.048 181 170 189
-0.048 -0.184 0.048 148 146 148
-0.064 -0.176 0.048 222 210 222
-0.056 -0.176 0.048 181 174 189
-0.048 -0.192 0.056 107 113 107
-0.04 -0.192 0.056 0 0 0
-0.064 -0.184 0.056 230 231 230
-0.056 -0.184 0.056 222 223 222
-0.048 -0.184 0.056 107 113 107
-0.064 -0.176 0.056 230 219 222
-0.016 -0.184 -0.064 0 0 0
-0.008 -0.184 -0.064 0 0 0
-0.032 -0.176 -0.064 0 0 0
-0.024 -0.176 -0.064 0 0 0
-0.016 -0.176 -0.064 0 0 0
-0.008 -0.176 -0.064 0 0 0
-0.048 -0.168 -0.064 123 125 123
-0.04 -0.168 -0.064 66 69 66
-0.032 -0.168 -0.064 0 0 0
-0.064 -0.16 -0.064 148 146 140
-0.056 -0.16 -0.064 123 97 115
-0.048 -0.16 -0.064 115 117 115
-0.04 -0.16 -0.064 82 85 74
-0.064 -0.152 -0.064 107 105 99
-0.024 -0.184 -0.056 0 0 0
-0.016 -0.184 -0.056 0 0 0
-0.008 -0.184 -0.056 0 0 0
-0.032 -0.176 -0.056 0 0 0
-0.024 -0.176 -0.056 0 0 0
-0.016 -0.176 -0.056 0 0 0
-0.048 -0.168 -0.056 132 134 132
-0.04 -0.168 -0.056 66 53 66
-0.064 -0.16 -0.056 140 146 140
-0.056 -0.16 -0.056 140 142 140
-0.048 -0.16 -0.056 115 121 115
-0.04 -0.16 -0.056 58 81 58
-0.008 -0.192 -0.048 0 0 0
-0.032 -0.184 -0.048 0 0 0
-0.024 -0.184 -0.048 0 0 0
-0.016 -0.184 -0.048 0 0 0
-0.008 -0.184 -0.048 0 0 0
-0.04 -0.176 -0.048 90 57 82
-0.032 -0.176 -0.048 0 0 0
-0.024 -0.176 -0.048 0 0 0
-0.056 -0.168 -0.048 148 150 148
-0.048 -0.168 -0.048 140 134 132
-0.04 -0.168 -0.048 58 57 58
-0.064 -0.16 -0.048 148 150 148
-0.056 -0.16 -0.048 140 146 140
-0.048 -0.16 -0.048 132 134 132
-0.016 -0.192 -0.04 0 0 0
-0.008 -0.192 -0.04 0 0 0
-0.032 -0.184 -0.04 0 0 0
-0.024 -0.184 -0.04 0 0 0
-0.016 -0.184 -0.04 0 0 0
-0.008 -0.184 -0.04 0 0 0
-0.04 -0.176 -0.04 66 65 74
-0.032 -0.176 -0.04 0 0 0
-0.024 -0.176 -0.04 0 0 0
-0.064 -0.168 -0.04 173 170 173
-0.056 -0.168 -0.04 156 154 156
-0.048 -0.168 -0.04 140 142 140
-0.04 -0.168 -0.04 82 65 82
-0.064 -0.16 -0.04 165 162 165
-0.056 -0.16 -0.04 148 150 148
-0.048 -0.16 -0.04 140 142 140
-0.016 -0.192 -0.032 0 0 0
-0.008 -0.192 -0.032 0 0 0
-0.032 -0.184 -0.032 0 0 0
-0.024 -0.184 -0.032 0 0 0
-0.016 -0.184 -0.032 0 0 0
-0.008 -0.184 -0.032 0 0 0
-0.04 -0.176 -0.032 107 93 115
-0.032 -0.176 -0.032 0 0 0
-0.064 -0.168 -0.032 173 170 173
-0.056 -0.168 -0.032 156 158 156
-0.048 -0.168 -0.032 140 138 140
-0.04 -0.168 -0.032 66 69 66
-0.064 -0.16 -0.032 165 166 165
-0.056 -0.16 -0.032 165 162 165
-0.024 -0.192 -0.024 0 0 0
-0.016 -0.192 -0.024 0 0 0
-0.008 -0.192 -0.024 0 0 0
-0.04 -0.184 -0.024 99 73 99
-0.032 -0.184 -0.024 0 0 0
-0.024 -0.184 -0.024 0 0 0
-0.016 -0.184 -0.024 0 0 0
-0.048 -0.176 -0.024 148 158 156
-0.04 -0.176 -0.024 99 77 90
-0.064 -0.168 -0.024 181 178 181
-0.056 -0.168 -0.024 173 174 173
-0.048 -0.168 -0.024 140 138 140
-0.064 -0.16 -0.024 173 174 173
-0.024 -0.192 -0.016 0 0 0
-0.016 -0.192 -0.016 0 0 0
-0.008 -0.192 -0.016 0 0 0
-0.04 -0.184 -0.016 74 49 66
-0.032 -0.184 -0.016 0 0 0
-0.024 -0.184 -0.016 0 0 0
-0.048 -0.176 -0.016 140 134 132
-0.04 -0.176 -0.016 107 105 115
-0.064 -0.168 -0.016 189 190 197
-0.056 -0.168 -0.016 181 186 189
-0.048 -0.168 -0.016 115 125 115
-0.064 -0.16 -0.016 181 186 189
-0.032 -0.192 -0.008 0 0 0
-0.024 -0.192 -0.008 0 0 0
-0.016 -0.192 -0.008 0 0 0
-0.008 -0.192 -0.008 0 0 0
-0.04 -0.184 -0.008 82 57 82
-0.032 -0.184 -0.008 0 0 0
-0.024 -0.184 -0.008 0 0 0
-0.056 -0.176 -0.008 181 190 189
-0.048 -0.176 -0.008 156 150 156
-0.04 -0.176 -0.008 115 77 115
-0.064 -0.168 -0.008 197 198 197
-0.056 -0.168 -0.008 189 186 189
-0.048 -0.168 -0.008 181 162 181
-0.072 -0.2 0.104 99 105 99
-0.088 -0.152 -0.088 58 53 49
-0.08 -0.152 -0.088 58 53 49
-0.072 -0.152 -0.088 58 49 41
-0.104 -0.144 -0.088 58 57 49
-0.096 -0.144 -0.088 66 57 49
-0.088 -0.144 -0.088 58 53 41
-0.12 -0.136 -0.088 58 57 49
-0.112 -0.136 -0.088 49 57 49
-0.088 -0.152 -0.08 66 65 58
-0.08 -0.152 -0.08 66 57 49
-0.072 -0.152 -0.08 58 57 49
-0.112 -0.144 -0.08 58 57 49
-0.104 -0.144 -0.08 66 61 58
-0.096 -0.144 -0.08 58 53 49
-0.088 -0.144 -0.08 58 53 49
-0.112 -0.136 -0.08 66 61 58
-0.104 -0.136 -0.08 58 57 49
-0.072 -0.16 -0.072 148 146 140
-0.096 -0.152 -0.072 132 130 123
-0.088 -0.152 -0.072 115 93 99
-0.08 -0.152 -0.072 74 73 58
-0.072 -0.152 -0.072 66 69 58
-0.12 -0.144 -0.072 140 117 132
-0.112 -0.144 -0.072 115 109 115
-0.104 -0.144 -0.072 74 69 66
-0.096 -0.144 -0.072 66 65 58
-0.088 -0.144 -0.072 66 61 58
-0.12 -0.136 -0.072 90 81 74
-0.112 -0.136 -0.072 66 65 58
-0.072 -0.16 -0.064 156 146 140
-0.096 -0.152 -0.064 140 130 123
-0.088 -0.152 -0.064 140 134 123
-0.08 -0.152 -0.064 148 142 132
-0.072 -0.152 -0.064 132 121 123
-0.12 -0.144 -0.064 156 146 156
-0.112 -0.144 -0.064 148 142 148
-0.104 -0.144 -0.064 132 121 123
-0.096 -0.144 -0.064 115 117 107
-0.12 -0.136 -0.064 99 89 82
-0.08 -0.16 -0.056 148 150 148
-0.072 -0.16 -0.056 148 150 148
-0.104 -0.152 -0.056 156 158 156
-0.096 -0.152 -0.056 156 154 148
-0.088 -0.152 -0.056 148 150 140
-0.08 -0.152 -0.056 148 150 140
-0.072 -0.152 -0.056 156 158 148
-0.128 -0.144 -0.056 148 150 148
-0.12 -0.144 -0.056 156 150 156
-0.112 -0.144 -0.056 148 146 140
-0.104 -0.144 -0.056 140 142 140
-0.096 -0.144 -0.056 140 134 123
-0.08 -0.16 -0.048 156 158 156
-0.072 -0.16 -0.048 148 150 148
-0.104 -0.152 -0.048 156 158 156
-0.096 -0.152 -0.048 156 158 156
-0.088 -0.152 -0.048 148 154 148
-0.08 -0.152 -0.048 140 146 140
-0.072 -0.152 -0.048 148 146 148
-0.12 -0.144 -0.048 156 154 156
-0.112 -0.144 -0.048 156 150 148
-0.104 -0.144 -0.048 148 150 148
-0.096 -0.144 -0.048 148 154 148
-0.088 -0.16 -0.04 165 166 165
-0.08 -0.16 -0.04 165 158 165
-0.072 -0.16 -0.04 165 162 165
-0.112 -0.152 -0.04 165 162 165
-0.104 -0.152 -0.04 165 162 165
-0.096 -0.152 -0.04 165 162 165
-0.088 -0.152 -0.04 165 162 165
-0.08 -0.152 -0.04 156 162 156
-0.12 -0.144 -0.04 165 158 156
-0.112 -0.144 -0.04 165 158 165
-0.104 -0.144 -0.04 156 154 156
-0.088 -0.16 -0.032 173 174 173
-0.08 -0.16 -0.032 173 174 173
-0.072 -0.16 -0.032 173 170 173
-0.12 -0.152 -0.032 173 170 173
-0.112 -0.152 -0.032 173 170 173
-0.104 -0.152 -0.032 165 166 165
-0.096 -0.152 -0.032 173 174 173
-0.088 -0.152 -0.032 165 166 165
-0.08 -0.152 -0.032 165 170 165
-0.12 -0.144 -0.032 173 170 173
-0.112 -0.144 -0.032 165 162 165
-0.104 -0.144 -0.032 165 166 165
-0.072 -0.168 -0.024 173 182 181
-0.096 -0.16 -0.024 181 182 181
-0.088 -0.16 -0.024 181 178 181
-0.08 -0.16 -0.024 181 182 181
-0.072 -0.16 -0.024 181 178 181
-0.12 -0.152 -0.024 181 178 181
-0.112 -0.152 -0.024 173 174 173
-0.104 -0.152 -0.024 181 178 181
-0.096 -0.152 -0.024 173 174 173
-0.088 -0.152 -0.024 173 174 173
-0.12 -0.144 -0.024 173 170 173
-0.112 -0.144 -0.024 173 170 173
-0.072 -0.168 -0.016 189 186 189
-0.104 -0.16 -0.016 197 194 197
-0.096 -0.16 -0.016 189 186 189
-0.088 -0.16 -0.016 189 190 189
-0.08 -0.16 -0.016 189 186 189
-0.072 -0.16 -0.016 181 186 181
-0.128 -0.152 -0.016 189 186 189
-0.12 -0.152 -0.016 181 182 181
-0.112 -0.152 -0.016 189 186 189
-0.104 -0.152 -0.016 189 186 189
-0.096 -0.152 -0.016 181 182 181
-0.088 -0.152 -0.016 189 186 189
-0.12 -0.144 -0.016 189 182 189
-0.08 -0.168 -0.008 197 194 197
-0.072 -0.168 -0.008 189 194 197
-0.104 -0.16 -0.008 197 194 197
-0.096 -0.16 -0.008 197 194 197
-0.088 -0.16 -0.008 197 198 197
-0.08 -0.16 -0.008 189 194 189
-0.072 -0.16 -0.008 197 198 197
-0.128 -0.152 -0.008 189 190 189
-0.12 -0.152 -0.008 189 186 189
-0.112 -0.152 -0.008 197 194 197
-0.104 -0.152 -0.008 189 190 189
-0.096 -0.152 -0.008 189 190 189
-0.12 -0.144 -0.008 189 186 189
-0.136 -0.16 0.024 206 206 206
-0.136 -0.16 0.056 206 202 206
-0.088 -0.168 0 197 202 197
-0.08 -0.168 0 206 202 206
-0.072 -0.168 0 197 198 197
-0.112 -0.16 0 197 198 197
-0.104 -0.16 0 197 198 197
-0.096 -0.16 0 206 202 206
-0.088 -0.16 0 206 202 206
-0.08 -0.16 0 206 198 206
-0.072 -0.16 0 206 202 206
-0.128 -0.152 0 197 198 197
-0.12 -0.152 0 197 198 197
-0.112 -0.152 0 197 194 197
-0.104 -0.152 0 197 198 197
-0.088 -0.168 0.008 214 206 214
-0.08 -0.168 0.008 156 150 156
-0.072 -0.168 0.008 148 158 148
-0.12 -0.16 0.008 206 202 206
-0.112 -0.16 0.008 206 206 206
-0.104 -0.16 0.008 197 202 197
-0.096 -0.16 0.008 206 206 206
-0.088 -0.16 0.008 206 206 206
-0.08 -0.16 0.008 156 166 156
-0.128 -0.152 0.008 206 198 206
-0.12 -0.152 0.008 206 202 206
-0.112 -0.152 0.008 197 198 197
-0.104 -0.152 0.008 206 202 206
-0.072 -0.176 0.016 123 150 123
-0.096 -0.168 0.016 99 105 99
-0.088 -0.168 0.016 107 105 107
-0.08 -0.168 0.016 214 215 214
-0.072 -0.168 0.016 214 215 214
-0.128 -0.16 0.016 107 105 107
-0.12 -0.16 0.016 115 105 115
-0.112 -0.16 0.016 115 109 115
-0.104 -0.16 0.016 90 101 90
-0.096 -0.16 0.016 107 105 107
-0.088 -0.16 0.016 123 134 123
-0.128 -0.152 0.016 206 202 206
-0.12 -0.152 0.016 107 101 107
-0.112 -0.152 0.016 99 97 99
-0.072 -0.176 0.024 148 170 148
-0.104 -0.168 0.024 214 215 214
-0.096 -0.168 0.024 214 215 214
-0.088 -0.168 0.024 173 186 173
-0.08 -0.168 0.024 99 109 99
-0.072 -0.168 0.024 115 117 115
-0.128 -0.16 0.024 206 206 206
-0.12 -0.16 0.024 206 206 214
-0.112 -0.16 0.024 214 210 214
-0.104 -0.16 0.024 181 178 181
-0.096 -0.16 0.024 115 125 107
-0.088 -0.16 0.024 99 113 99
-0.12 -0.152 0.024 214 206 214
-0.08 -0.176 0.032 173 162 173
-0.072 -0.176 0.032 156 158 165
-0.112 -0.168 0.032 214 210 214
-0.104 -0.168 0.032 222 215 214
-0.096 -0.168 0.032 222 223 222
-0.088 -0.168 0.032 148 162 156
-0.08 -0.168 0.032 156 174 165
-0.072 -0.168 0.032 132 154 148
-0.128 -0.16 0.032 206 202 206
-0.12 -0.16 0.032 214 210 214
-0.112 -0.16 0.032 206 206 206
-0.104 -0.16 0.032 214 215 214
-0.096 -0.16 0.032 214 215 214
-0.128 -0.152 0.032 206 206 206
-0.088 -0.176 0.04 222 219 230
-0.08 -0.176 0.04 230 227 230
-0.072 -0.176 0.04 230 227 230
-0.12 -0.168 0.04 214 210 214
-0.112 -0.168 0.04 222 215 214
-0.104 -0.168 0.04 214 215 214
-0.096 -0.168 0.04 222 219 222
-0.088 -0.168 0.04 222 219 222
-0.08 -0.168 0.04 230 227 230
-0.128 -0.16 0.04 214 202 206
-0.12 -0.16 0.04 214 210 214
-0.112 -0.16 0.04 214 215 214
-0.104 -0.16 0.04 214 210 214
-0.096 -0.176 0.048 206 215 214
-0.088 -0.176 0.048 156 154 156
-0.08 -0.176 0.048 99 105 99
-0.072 -0.176 0.048 107 105 107
-0.12 -0.168 0.048 214 210 214
-0.112 -0.168 0.048 214 215 222
-0.104 -0.168 0.048 181 190 181
-0.096 -0.168 0.048 181 178 181
-0.088 -0.168 0.048 181 194 189
-0.08 -0.168 0.048 132 125 132
-0.128 -0.16 0.048 206 206 206
-0.12 -0.16 0.048 206 206 206
-0.112 -0.16 0.048 214 210 214
-0.072 -0.184 0.056 115 125 115
-0.104 -0.176 0.056 222 219 222
-0.096 -0.176 0.056 214 215 214
-0.088 -0.176 0.056 189 182 189
-0.08 -0.176 0.056 123 117 115
-0.072 -0.176 0.056 107 109 115
-0.128 -0.168 0.056 206 202 206
-0.12 -0.168 0.056 214 210 214
-0.112 -0.168 0.056 222 215 222
-0.104 -0.168 0.056 214 210 214
-0.096 -0.168 0.056 206 210 214
-0.088 -0.168 0.056 230 223 230
-0.128 -0.16 0.056 206 202 206
-0.12 -0.16 0.056 206 198 206
-0.136 -0.168 0.064 197 198 197
-0.136 -0.168 0.072 181 170 165
-0.136 -0.168 0.08 189 186 189
-0.136 -0.176 0.088 140 154 156
-0.136 -0.168 0.088 123 146 156
-0.144 -0.176 0.096 99 101 90
-0.136 -0.176 0.096 107 101 107
-0.136 -0.168 0.096 82 85 90
-0.144 -0.176 0.104 0 0 0
-0.136 -0.176 0.104 0 0 0
-0.08 -0.184 0.064 148 142 156
-0.072 -0.184 0.064 197 194 189
-0.112 -0.176 0.064 214 210 214
-0.104 -0.176 0.064 148 154 140
-0.096 -0.176 0.064 156 158 165
-0.088 -0.176 0.064 140 142 148
-0.08 -0.176 0.064 123 142 123
-0.072 -0.176 0.064 230 219 230
-0.128 -0.168 0.064 206 202 206
-0.12 -0.168 0.064 214 210 214
-0.112 -0.168 0.064 214 210 214
-0.104 -0.168 0.064 214 215 214
-0.096 -0.168 0.064 156 146 148
-0.128 -0.16 0.064 206 198 197
-0.088 -0.184 0.072 181 178 181
-0.08 -0.184 0.072 173 182 173
-0.072 -0.184 0.072 197 198 197
-0.12 -0.176 0.072 189 186 197
-0.112 -0.176 0.072 214 174 140
-0.104 -0.176 0.072 189 186 181
-0.096 -0.176 0.072 222 202 222
-0.088 -0.176 0.072 222 223 222
-0.08 -0.176 0.072 230 223 222
-0.128 -0.168 0.072 173 162 173
-0.12 -0.168 0.072 189 174 189
-0.112 -0.168 0.072 197 194 189
-0.104 -0.168 0.072 222 174 148
-0.072 -0.192 0.08 214 215 214
-0.096 -0.184 0.08 189 182 189
-0.088 -0.184 0.08 197 202 197
-0.08 -0.184 0.08 206 206 206
-0.072 -0.184 0.08 197 202 206
-0.128 -0.176 0.08 173 174 173
-0.12 -0.176 0.08 181 170 181
-0.112 -0.176 0.08 181 174 173
-0.104 -0.176 0.08 165 166 165
-0.096 -0.176 0.08 181 190 181
-0.088 -0.176 0.08 173 174 173
-0.128 -0.168 0.08 197 190 197
-0.12 -0.168 0.08 197 190 197
-0.112 -0.168 0.08 173 170 181
-0.08 -0.192 0.088 206 206 214
-0.072 -0.192 0.088 173 182 189
-0.104 -0.184 0.088 189 194 189
-0.096 -0.184 0.088 197 198 206
-0.088 -0.184 0.088 173 170 173
-0.08 -0.184 0.088 197 198 197
-0.072 -0.184 0.088 189 182 189
-0.128 -0.176 0.088 181 174 181
-0.12 -0.176 0.088 148 138 148
-0.112 -0.176 0.088 165 174 173
-0.104 -0.176 0.088 140 162 173
-0.096 -0.176 0.088 165 162 165
-0.128 -0.168 0.088 115 138 156
-0.12 -0.168 0.088 156 150 156
-0.088 -0.192 0.096 148 162 156
-0.08 -0.192 0.096 165 174 165
-0.072 -0.192 0.096 165 174 173
-0.112 -0.184 0.096 123 134 148
-0.104 -0.184 0.096 115 113 115
-0.096 -0.184 0.096 115 117 115
-0.088 -0.184 0.096 132 125 132
-0.08 -0.184 0.096 107 105 107
-0.128 -0.176 0.096 82 89 82
-0.12 -0.176 0.096 107 105 107
-0.112 -0.176 0.096 107 105 115
-0.104 -0.176 0.096 99 93 99
-0.128 -0.168 0.096 82 89 82
-0.096 -0.192 0.104 99 93 107
-0.088 -0.192 0.104 90 89 99
-0.08 -0.192 0.104 41 36 41
-0.072 -0.192 0.104 74 77 82
-0.12 -0.184 0.104 8 16 16
-0.112 -0.184 0.104 58 53 58
-0.104 -0.184 0.104 0 0 0
-0.096 -0.184 0.104 0 0 0
-0.088 -0.184 0.104 0 8 8
-0.128 -0.176 0.104 0 0 0
-0.12 -0.176 0.104 0 0 0
-0.112 -0.176 0.104 0 0 0
